<svg width="48" height="48" viewBox="0 0 48 48" fill="none" xmlns="http://www.w3.org/2000/svg">
<path fill-rule="evenodd" clip-rule="evenodd" d="M24 48C37.2548 48 48 37.2548 48 24C48 10.7452 37.2548 0 24 0C10.7452 0 0 10.7452 0 24C0 37.2548 10.7452 48 24 48ZM27 15C27 13.3431 25.6569 12 24 12C22.3431 12 21 13.3431 21 15V21H15C13.3431 21 12 22.3431 12 24C12 25.6569 13.3431 27 15 27H21V33C21 34.6569 22.3431 36 24 36C25.6569 36 27 34.6569 27 33V27H33C34.6569 27 36 25.6569 36 24C36 22.3431 34.6569 21 33 21H27V15Z" fill="#0A69BB"/>
</svg>
