<svg width="48" height="48" viewBox="0 0 48 48" fill="none" xmlns="http://www.w3.org/2000/svg">
<path d="M41.7949 6.20594C39.9204 4.33142 36.8812 4.33142 35.0067 6.20594L16.8008 24.4118V31.2001H23.589L41.7949 12.9942C43.6694 11.1196 43.6694 8.08045 41.7949 6.20594Z" fill="#0A69BB"/>
<path fill-rule="evenodd" clip-rule="evenodd" d="M4.80078 14.4C4.80078 11.7491 6.94981 9.60005 9.60078 9.60005H19.2008C20.5263 9.60005 21.6008 10.6746 21.6008 12C21.6008 13.3255 20.5263 14.4 19.2008 14.4H9.60078V38.4001H33.6008V28.8C33.6008 27.4746 34.6753 26.4 36.0008 26.4C37.3263 26.4 38.4008 27.4746 38.4008 28.8V38.4001C38.4008 41.051 36.2517 43.2001 33.6008 43.2001H9.60078C6.94981 43.2001 4.80078 41.051 4.80078 38.4001V14.4Z" fill="#0A69BB"/>
</svg>
