<svg width="36" height="41" viewBox="0 0 36 41" fill="none" xmlns="http://www.w3.org/2000/svg">
<path d="M0 25.286V32.8718C0 37.0613 7.92465 40.4576 17.7002 40.4576C27.4757 40.4576 35.4004 37.0613 35.4004 32.8718V25.286C35.4004 29.4755 27.4757 32.8718 17.7002 32.8718C7.92465 32.8718 0 29.4755 0 25.286Z" fill="#0A69BB"/>
<path d="M0 12.643V20.2288C0 24.4183 7.92465 27.8146 17.7002 27.8146C27.4757 27.8146 35.4004 24.4183 35.4004 20.2288V12.643C35.4004 16.8325 27.4757 20.2288 17.7002 20.2288C7.92465 20.2288 0 16.8325 0 12.643Z" fill="#0A69BB"/>
<path d="M35.4004 7.5858C35.4004 11.7753 27.4757 15.1716 17.7002 15.1716C7.92465 15.1716 0 11.7753 0 7.5858C0 3.39628 7.92465 0 17.7002 0C27.4757 0 35.4004 3.39628 35.4004 7.5858Z" fill="#0A69BB"/>
</svg>
