<svg width="48" height="48" viewBox="0 0 48 48" fill="none" xmlns="http://www.w3.org/2000/svg">
<path d="M31.2 14.4002C31.2 18.3766 27.9765 21.6002 24 21.6002C20.0236 21.6002 16.8 18.3766 16.8 14.4002C16.8 10.4237 20.0236 7.2002 24 7.2002C27.9765 7.2002 31.2 10.4237 31.2 14.4002Z" fill="#0A69BB"/>
<path d="M43.2 19.2002C43.2 21.8512 41.051 24.0002 38.4 24.0002C35.7491 24.0002 33.6 21.8512 33.6 19.2002C33.6 16.5492 35.7491 14.4002 38.4 14.4002C41.051 14.4002 43.2 16.5492 43.2 19.2002Z" fill="#0A69BB"/>
<path d="M33.6 36.0002C33.6 30.6983 29.302 26.4002 24 26.4002C18.6981 26.4002 14.4 30.6983 14.4 36.0002V43.2002H33.6V36.0002Z" fill="#0A69BB"/>
<path d="M14.4 19.2002C14.4 21.8512 12.251 24.0002 9.60002 24.0002C6.94906 24.0002 4.80002 21.8512 4.80002 19.2002C4.80002 16.5492 6.94906 14.4002 9.60002 14.4002C12.251 14.4002 14.4 16.5492 14.4 19.2002Z" fill="#0A69BB"/>
<path d="M38.4 43.2002V36.0002C38.4 33.4702 37.7476 31.0927 36.6018 29.0266C37.1766 28.8788 37.7791 28.8002 38.4 28.8002C42.3765 28.8002 45.6 32.0237 45.6 36.0002V43.2002H38.4Z" fill="#0A69BB"/>
<path d="M11.3983 29.0266C10.2525 31.0927 9.60002 33.4702 9.60002 36.0002V43.2002H2.40002V36.0002C2.40002 32.0237 5.62357 28.8002 9.60002 28.8002C10.2209 28.8002 10.8235 28.8788 11.3983 29.0266Z" fill="#0A69BB"/>
</svg>
