<svg width="48" height="48" viewBox="0 0 48 48" fill="none" xmlns="http://www.w3.org/2000/svg">
<path fill-rule="evenodd" clip-rule="evenodd" d="M25.1919 5.11627C24.4541 4.69464 23.5483 4.69464 22.8105 5.11627L6.01046 14.7163C4.85962 15.3739 4.45978 16.8399 5.11741 17.9908C5.55993 18.7652 6.36851 19.1995 7.20078 19.2005V36C5.8753 36 4.80078 37.0746 4.80078 38.4001C4.80078 39.7255 5.8753 40.8 7.20078 40.8H40.8008C42.1263 40.8 43.2008 39.7255 43.2008 38.4001C43.2008 37.0746 42.1263 36 40.8008 36V19.2005C41.6333 19.1998 42.4423 18.7654 42.885 17.9908C43.5426 16.8399 43.1428 15.3739 41.9919 14.7163L25.1919 5.11627ZM14.4008 21.6C13.0753 21.6 12.0008 22.6746 12.0008 24V31.2001C12.0008 32.5255 13.0753 33.6 14.4008 33.6C15.7263 33.6 16.8008 32.5255 16.8008 31.2001V24C16.8008 22.6746 15.7263 21.6 14.4008 21.6ZM21.6008 24C21.6008 22.6746 22.6753 21.6 24.0008 21.6C25.3263 21.6 26.4008 22.6746 26.4008 24V31.2001C26.4008 32.5255 25.3263 33.6 24.0008 33.6C22.6753 33.6 21.6008 32.5255 21.6008 31.2001V24ZM33.6008 21.6C32.2753 21.6 31.2008 22.6746 31.2008 24V31.2001C31.2008 32.5255 32.2753 33.6 33.6008 33.6C34.9263 33.6 36.0008 32.5255 36.0008 31.2001V24C36.0008 22.6746 34.9263 21.6 33.6008 21.6Z" fill="#0A69BB"/>
</svg>
