<svg width="48" height="48" viewBox="0 0 48 48" fill="none" xmlns="http://www.w3.org/2000/svg">
<path fill-rule="evenodd" clip-rule="evenodd" d="M9.60078 9.6001C6.94981 9.6001 4.80078 11.7491 4.80078 14.4001V33.6001C4.80078 36.2511 6.94981 38.4001 9.60078 38.4001H38.4008C41.0518 38.4001 43.2008 36.2511 43.2008 33.6001V19.2001C43.2008 16.5491 41.0518 14.4001 38.4008 14.4001H26.4008L21.6008 9.6001H9.60078ZM26.4008 21.6001C26.4008 20.2746 25.3263 19.2001 24.0008 19.2001C22.6753 19.2001 21.6008 20.2746 21.6008 21.6001V24.0001H19.2008C17.8753 24.0001 16.8008 25.0746 16.8008 26.4001C16.8008 27.7256 17.8753 28.8001 19.2008 28.8001H21.6008V31.2001C21.6008 32.5256 22.6753 33.6001 24.0008 33.6001C25.3263 33.6001 26.4008 32.5256 26.4008 31.2001V28.8001H28.8008C30.1263 28.8001 31.2008 27.7256 31.2008 26.4001C31.2008 25.0746 30.1263 24.0001 28.8008 24.0001H26.4008V21.6001Z" fill="#0A69BB"/>
</svg>
