<svg width="48" height="48" viewBox="0 0 48 48" fill="none" xmlns="http://www.w3.org/2000/svg">
<path d="M12.0008 28.8002C12.0008 30.1257 13.0753 31.2002 14.4008 31.2002C15.7263 31.2002 16.8008 30.1257 16.8008 28.8002L16.8008 15.3943L19.9037 18.4973C20.841 19.4345 22.3606 19.4345 23.2978 18.4973C24.2351 17.56 24.2351 16.0404 23.2978 15.1031L16.0978 7.90314C15.6478 7.45305 15.0373 7.2002 14.4008 7.2002C13.7643 7.2002 13.1538 7.45305 12.7037 7.90314L5.50373 15.1031C4.56647 16.0404 4.56647 17.56 5.50373 18.4972C6.44098 19.4345 7.96058 19.4345 8.89784 18.4972L12.0008 15.3943L12.0008 28.8002Z" fill="#0A69BB"/>
<path d="M36.0008 19.2002C36.0008 17.8747 34.9263 16.8002 33.6008 16.8002C32.2753 16.8002 31.2008 17.8747 31.2008 19.2002L31.2008 32.6061L28.0978 29.5031C27.1606 28.5659 25.641 28.5659 24.7037 29.5031C23.7665 30.4404 23.7665 31.96 24.7037 32.8972L31.9037 40.0973C32.3538 40.5473 32.9643 40.8002 33.6008 40.8002C34.2373 40.8002 34.8477 40.5473 35.2978 40.0973L42.4978 32.8973C43.4351 31.96 43.4351 30.4404 42.4978 29.5031C41.5606 28.5659 40.041 28.5659 39.1037 29.5031L36.0008 32.6061L36.0008 19.2002Z" fill="#0A69BB"/>
</svg>
