<svg width="48" height="48" viewBox="0 0 48 48" fill="none" xmlns="http://www.w3.org/2000/svg">
<path fill-rule="evenodd" clip-rule="evenodd" d="M27.5749 7.61104C26.6653 3.86403 21.3363 3.86403 20.4267 7.61104C19.839 10.0316 17.0659 11.1802 14.9388 9.88419C11.646 7.87788 7.87788 11.646 9.88419 14.9388C11.1802 17.0659 10.0316 19.839 7.61104 20.4267C3.86403 21.3363 3.86403 26.6653 7.61104 27.5749C10.0316 28.1625 11.1802 30.9357 9.8842 33.0628C7.87788 36.3556 11.646 40.1237 14.9388 38.1174C17.0659 36.8213 19.839 37.97 20.4267 40.3905C21.3363 44.1375 26.6653 44.1375 27.5749 40.3905C28.1625 37.97 30.9357 36.8213 33.0628 38.1174C36.3556 40.1237 40.1237 36.3556 38.1174 33.0628C36.8213 30.9357 37.97 28.1625 40.3905 27.5749C44.1375 26.6653 44.1375 21.3363 40.3905 20.4267C37.97 19.839 36.8213 17.0659 38.1174 14.9388C40.1237 11.646 36.3556 7.87788 33.0628 9.88419C30.9357 11.1802 28.1625 10.0316 27.5749 7.61104ZM24.0008 31.2008C27.9772 31.2008 31.2008 27.9772 31.2008 24.0008C31.2008 20.0243 27.9772 16.8008 24.0008 16.8008C20.0243 16.8008 16.8008 20.0243 16.8008 24.0008C16.8008 27.9772 20.0243 31.2008 24.0008 31.2008Z" fill="#0A69BB"/>
</svg>
