<svg width="48" height="48" viewBox="0 0 48 48" fill="none" xmlns="http://www.w3.org/2000/svg">
<path fill-rule="evenodd" clip-rule="evenodd" d="M27.5749 7.61031C26.6653 3.8633 21.3363 3.86329 20.4267 7.61031C19.839 10.0308 17.0659 11.1795 14.9388 9.88346C11.646 7.87715 7.87788 11.6453 9.88419 14.938C11.1802 17.0651 10.0316 19.8383 7.61104 20.4259C3.86403 21.3356 3.86403 26.6645 7.61104 27.5742C10.0316 28.1618 11.1802 30.935 9.8842 33.0621C7.87788 36.3548 11.646 40.123 14.9388 38.1166C17.0659 36.8206 19.839 37.9693 20.4267 40.3898C21.3363 44.1368 26.6653 44.1368 27.5749 40.3898C28.1625 37.9693 30.9357 36.8206 33.0628 38.1166C36.3556 40.123 40.1237 36.3548 38.1174 33.0621C36.8213 30.935 37.97 28.1618 40.3905 27.5742C44.1375 26.6645 44.1375 21.3356 40.3905 20.4259C37.97 19.8383 36.8213 17.0651 38.1174 14.938C40.1237 11.6453 36.3556 7.87715 33.0628 9.88346C30.9357 11.1795 28.1625 10.0308 27.5749 7.61031ZM24.0008 31.2001C27.9772 31.2001 31.2008 27.9765 31.2008 24C31.2008 20.0236 27.9772 16.8 24.0008 16.8C20.0243 16.8 16.8008 20.0236 16.8008 24C16.8008 27.9765 20.0243 31.2001 24.0008 31.2001Z" fill="#0A69BB"/>
</svg>
