<svg width="48" height="48" viewBox="0 0 48 48" fill="none" xmlns="http://www.w3.org/2000/svg">
<path d="M4.80078 7.20005C4.80078 5.87457 5.8753 4.80005 7.20078 4.80005H12.3677C13.5409 4.80005 14.5421 5.64824 14.735 6.80549L16.5094 17.4516C16.6826 18.4909 16.1577 19.5216 15.2153 19.9928L11.4998 21.8505C14.1789 28.508 19.4928 33.8219 26.1503 36.501L28.0081 32.7855C28.4792 31.8431 29.51 31.3182 30.5492 31.4915L41.1953 33.2658C42.3526 33.4587 43.2008 34.4599 43.2008 35.6332V40.8C43.2008 42.1255 42.1263 43.2001 40.8008 43.2001H36.0008C18.7695 43.2001 4.80078 29.2313 4.80078 12V7.20005Z" fill="#0A69BB"/>
</svg>
