<svg width="48" height="48" viewBox="0 0 48 48" fill="none" xmlns="http://www.w3.org/2000/svg">
<path fill-rule="evenodd" clip-rule="evenodd" d="M11.9992 4.80005C9.34825 4.80005 7.19922 6.94908 7.19922 9.60005V43.2L15.5992 38.4L23.9992 43.2L32.3992 38.4L40.7992 43.2V9.60005C40.7992 6.94908 38.6502 4.80005 35.9992 4.80005H11.9992ZM17.9992 12C16.011 12 14.3992 13.6118 14.3992 15.6C14.3992 17.5883 16.011 19.2 17.9992 19.2C19.9874 19.2 21.5992 17.5883 21.5992 15.6C21.5992 13.6118 19.9874 12 17.9992 12ZM32.8963 12.703C31.959 11.7657 30.4394 11.7657 29.5022 12.703L15.1022 27.103C14.1649 28.0402 14.1649 29.5598 15.1022 30.4971C16.0394 31.4344 17.559 31.4344 18.4963 30.4971L32.8963 16.0971C33.8335 15.1598 33.8335 13.6403 32.8963 12.703ZM29.9992 24C28.011 24 26.3992 25.6118 26.3992 27.6C26.3992 29.5883 28.011 31.2 29.9992 31.2C31.9874 31.2 33.5992 29.5883 33.5992 27.6C33.5992 25.6118 31.9874 24 29.9992 24Z" fill="#0A69BB"/>
</svg>
