<svg width="48" height="48" viewBox="0 0 48 48" fill="none" xmlns="http://www.w3.org/2000/svg">
<path d="M36.0008 19.2C39.9772 19.2 43.2008 15.9765 43.2008 12C43.2008 8.0236 39.9772 4.80005 36.0008 4.80005C32.0243 4.80005 28.8008 8.0236 28.8008 12C28.8008 12.3012 28.8193 12.5981 28.8552 12.8895L16.999 18.8176C15.7041 17.5684 13.9422 16.8 12.0008 16.8C8.02433 16.8 4.80078 20.0236 4.80078 24C4.80078 27.9765 8.02433 31.2001 12.0008 31.2001C13.9422 31.2001 15.7041 30.4317 16.9991 29.1824L28.8552 35.1105C28.8193 35.402 28.8008 35.6988 28.8008 36C28.8008 39.9765 32.0243 43.2001 36.0008 43.2001C39.9772 43.2001 43.2008 39.9765 43.2008 36C43.2008 32.0236 39.9772 28.8 36.0008 28.8C34.0594 28.8 32.2975 29.5684 31.0026 30.8176L19.1464 24.8895C19.1823 24.5981 19.2008 24.3012 19.2008 24C19.2008 23.6988 19.1823 23.402 19.1464 23.1105L31.0025 17.1824C32.2974 18.4317 34.0594 19.2 36.0008 19.2Z" fill="#0A69BB"/>
</svg>
