<svg width="48" height="48" viewBox="0 0 48 48" fill="none" xmlns="http://www.w3.org/2000/svg">
<path d="M31.1984 14.4C31.1984 18.3764 27.9749 21.6 23.9984 21.6C20.022 21.6 16.7984 18.3764 16.7984 14.4C16.7984 10.4235 20.022 7.19995 23.9984 7.19995C27.9749 7.19995 31.1984 10.4235 31.1984 14.4Z" fill="#0A69BB"/>
<path d="M43.1984 19.2C43.1984 21.8509 41.0494 24 38.3984 24C35.7475 24 33.5984 21.8509 33.5984 19.2C33.5984 16.549 35.7475 14.4 38.3984 14.4C41.0494 14.4 43.1984 16.549 43.1984 19.2Z" fill="#0A69BB"/>
<path d="M33.5984 36C33.5984 30.698 29.3004 26.4 23.9984 26.4C18.6965 26.4 14.3984 30.698 14.3984 36V43.2H33.5984V36Z" fill="#0A69BB"/>
<path d="M14.3984 19.2C14.3984 21.8509 12.2494 24 9.59844 24C6.94747 24 4.79844 21.8509 4.79844 19.2C4.79844 16.549 6.94747 14.4 9.59844 14.4C12.2494 14.4 14.3984 16.549 14.3984 19.2Z" fill="#0A69BB"/>
<path d="M38.3984 43.2V36C38.3984 33.47 37.746 31.0924 36.6002 29.0263C37.175 28.8785 37.7775 28.8 38.3984 28.8C42.3749 28.8 45.5984 32.0235 45.5984 36V43.2H38.3984Z" fill="#0A69BB"/>
<path d="M11.3967 29.0263C10.2509 31.0924 9.59844 33.47 9.59844 36V43.2H2.39844V36C2.39844 32.0235 5.62199 28.8 9.59844 28.8C10.2193 28.8 10.8219 28.8785 11.3967 29.0263Z" fill="#0A69BB"/>
</svg>
