<svg width="42" height="40" viewBox="0 0 42 40" fill="none" xmlns="http://www.w3.org/2000/svg">
<path d="M18.6666 8.57143C18.6666 13.3053 15.5326 17.1429 11.6667 17.1429C7.80067 17.1429 4.66666 13.3053 4.66666 8.57143C4.66666 3.83756 7.80067 0 11.6667 0C15.5326 0 18.6666 3.83756 18.6666 8.57143Z" fill="#0A69BB"/>
<path d="M37.3333 8.57143C37.3333 13.3053 34.1993 17.1429 30.3333 17.1429C26.4673 17.1429 23.3333 13.3053 23.3333 8.57143C23.3333 3.83756 26.4673 0 30.3333 0C34.1993 0 37.3333 3.83756 37.3333 8.57143Z" fill="#0A69BB"/>
<path d="M27.8346 40C27.9436 39.0668 28 38.1129 28 37.1429C28 32.4709 26.6918 28.1731 24.4994 24.7688C26.2156 23.553 28.2081 22.8571 30.3333 22.8571C36.7767 22.8571 42 29.2531 42 37.1429V40H27.8346Z" fill="#0A69BB"/>
<path d="M11.6667 22.8571C18.11 22.8571 23.3333 29.2531 23.3333 37.1429V40H0V37.1429C0 29.2531 5.22334 22.8571 11.6667 22.8571Z" fill="#0A69BB"/>
</svg>
