<svg width="48" height="48" viewBox="0 0 48 48" fill="none" xmlns="http://www.w3.org/2000/svg">
<path d="M13.2008 31.1999C8.56159 31.1999 4.80078 27.4391 4.80078 22.7999C4.80078 18.4598 8.09229 14.8885 12.3152 14.446C12.11 13.6651 12.0008 12.8452 12.0008 11.9999C12.0008 6.69797 16.2988 2.3999 21.6008 2.3999C26.11 2.3999 29.8931 5.50881 30.9235 9.70009C31.4065 9.63403 31.8997 9.5999 32.4008 9.5999C38.3655 9.5999 43.2008 14.4352 43.2008 20.3999C43.2008 26.3646 38.3655 31.1999 32.4008 31.1999H26.4008V22.594L29.5037 25.697C30.441 26.6342 31.9606 26.6342 32.8978 25.697C33.8351 24.7597 33.8351 23.2401 32.8978 22.3028L25.6978 15.1028C24.7606 14.1656 23.241 14.1656 22.3037 15.1028L15.1037 22.3028C14.1665 23.2401 14.1665 24.7597 15.1037 25.697C16.041 26.6342 17.5606 26.6342 18.4978 25.697L21.6008 22.594L21.6008 31.1999H13.2008Z" fill="#0A69BB"/>
<path d="M21.6008 31.1999H26.4008L26.4008 43.1999C26.4008 44.5254 25.3263 45.5999 24.0008 45.5999C22.6753 45.5999 21.6008 44.5254 21.6008 43.1999V31.1999Z" fill="#0A69BB"/>
</svg>
