<svg width="21" height="20" viewBox="0 0 21 20" fill="none" xmlns="http://www.w3.org/2000/svg">
<g clip-path="url(#clip0_16351_8448)">
<path fill-rule="evenodd" clip-rule="evenodd" d="M10.5013 3.33398C10.9615 3.33398 11.3346 3.70708 11.3346 4.16732V15.834C11.3346 16.2942 10.9615 16.6673 10.5013 16.6673C10.0411 16.6673 9.66797 16.2942 9.66797 15.834V4.16732C9.66797 3.70708 10.0411 3.33398 10.5013 3.33398Z" fill="#0A69BB"/>
<path fill-rule="evenodd" clip-rule="evenodd" d="M3.83203 9.99935C3.83203 9.53911 4.20513 9.16602 4.66536 9.16602H16.332C16.7923 9.16602 17.1654 9.53911 17.1654 9.99935C17.1654 10.4596 16.7923 10.8327 16.332 10.8327H4.66536C4.20513 10.8327 3.83203 10.4596 3.83203 9.99935Z" fill="#0A69BB"/>
</g>
<defs>
<clipPath id="clip0_16351_8448">
<rect width="20" height="20" fill="white" transform="translate(0.5)"/>
</clipPath>
</defs>
</svg>
