<svg width="349" height="436" viewBox="0 0 349 436" fill="none" xmlns="http://www.w3.org/2000/svg">
<rect x="0.5" y="0.5" width="348" height="435" fill="white"/>
<rect x="0.5" y="0.5" width="348" height="435" stroke="#D6DDEB"/>
<path d="M41.4 41.2H44.984V53H42.976V42.544L43.024 42.56L40.488 53H37.672L35.104 42.552L35.152 42.528V53H33.144V41.2H36.728L39.12 51.848H38.984L41.4 41.2ZM47.965 49.432V47.936H53.909L53.669 48.336C53.669 48.304 53.669 48.2693 53.669 48.232C53.669 48.1893 53.669 48.1547 53.669 48.128C53.669 47.76 53.5863 47.416 53.421 47.096C53.2557 46.7707 53.005 46.5093 52.669 46.312C52.333 46.1093 51.9063 46.008 51.389 46.008C50.877 46.008 50.4317 46.1173 50.053 46.336C49.6797 46.5493 49.389 46.8587 49.181 47.264C48.9783 47.6693 48.877 48.1547 48.877 48.72C48.877 49.3013 48.9757 49.8027 49.173 50.224C49.3703 50.64 49.6583 50.96 50.037 51.184C50.421 51.4027 50.8877 51.512 51.437 51.512C51.8103 51.512 52.133 51.4773 52.405 51.408C52.677 51.3387 52.8983 51.2453 53.069 51.128C53.245 51.0053 53.3757 50.8747 53.461 50.736C53.5517 50.5973 53.605 50.4587 53.621 50.32H55.717C55.685 50.6773 55.565 51.0267 55.357 51.368C55.1543 51.704 54.869 52.0107 54.501 52.288C54.133 52.56 53.685 52.7787 53.157 52.944C52.6343 53.104 52.037 53.184 51.365 53.184C50.453 53.184 49.6557 52.9973 48.973 52.624C48.2903 52.2507 47.757 51.7307 47.373 51.064C46.9943 50.3973 46.805 49.6347 46.805 48.776C46.805 47.896 46.997 47.1253 47.381 46.464C47.7703 45.8027 48.309 45.288 48.997 44.92C49.685 44.5467 50.4743 44.36 51.365 44.36C52.2823 44.36 53.0743 44.5467 53.741 44.92C54.413 45.2933 54.9303 45.8133 55.293 46.48C55.6557 47.1413 55.837 47.912 55.837 48.792C55.837 48.904 55.8343 49.024 55.829 49.152C55.8237 49.28 55.8157 49.3733 55.805 49.432H47.965ZM58.3556 49.432V47.936H64.2996L64.0596 48.336C64.0596 48.304 64.0596 48.2693 64.0596 48.232C64.0596 48.1893 64.0596 48.1547 64.0596 48.128C64.0596 47.76 63.977 47.416 63.8116 47.096C63.6463 46.7707 63.3956 46.5093 63.0596 46.312C62.7236 46.1093 62.297 46.008 61.7796 46.008C61.2676 46.008 60.8223 46.1173 60.4436 46.336C60.0703 46.5493 59.7796 46.8587 59.5716 47.264C59.369 47.6693 59.2676 48.1547 59.2676 48.72C59.2676 49.3013 59.3663 49.8027 59.5636 50.224C59.761 50.64 60.049 50.96 60.4276 51.184C60.8116 51.4027 61.2783 51.512 61.8276 51.512C62.201 51.512 62.5236 51.4773 62.7956 51.408C63.0676 51.3387 63.289 51.2453 63.4596 51.128C63.6356 51.0053 63.7663 50.8747 63.8516 50.736C63.9423 50.5973 63.9956 50.4587 64.0116 50.32H66.1076C66.0756 50.6773 65.9556 51.0267 65.7476 51.368C65.545 51.704 65.2596 52.0107 64.8916 52.288C64.5236 52.56 64.0756 52.7787 63.5476 52.944C63.025 53.104 62.4276 53.184 61.7556 53.184C60.8436 53.184 60.0463 52.9973 59.3636 52.624C58.681 52.2507 58.1476 51.7307 57.7636 51.064C57.385 50.3973 57.1956 49.6347 57.1956 48.776C57.1956 47.896 57.3876 47.1253 57.7716 46.464C58.161 45.8027 58.6996 45.288 59.3876 44.92C60.0756 44.5467 60.865 44.36 61.7556 44.36C62.673 44.36 63.465 44.5467 64.1316 44.92C64.8036 45.2933 65.321 45.8133 65.6836 46.48C66.0463 47.1413 66.2276 47.912 66.2276 48.792C66.2276 48.904 66.225 49.024 66.2196 49.152C66.2143 49.28 66.2063 49.3733 66.1956 49.432H58.3556ZM71.7725 53.16C71.4685 53.16 71.1592 53.1307 70.8445 53.072C70.5298 53.0133 70.2418 52.904 69.9805 52.744C69.7192 52.584 69.5085 52.3493 69.3485 52.04C69.1885 51.7307 69.1085 51.3227 69.1085 50.816C69.1085 50.6987 69.1085 50.5813 69.1085 50.464C69.1085 50.3413 69.1085 50.216 69.1085 50.088V46.184H67.1005V44.504H67.9165C68.1938 44.504 68.4125 44.4933 68.5725 44.472C68.7325 44.4453 68.8498 44.3867 68.9245 44.296C68.9992 44.2053 69.0472 44.064 69.0685 43.872C69.0952 43.6747 69.1085 43.4027 69.1085 43.056V41.704H71.2205V44.504H73.7485V46.184H71.2205V49.592C71.2205 49.6933 71.2205 49.7947 71.2205 49.896C71.2205 49.992 71.2205 50.0853 71.2205 50.176C71.2205 50.5707 71.2685 50.888 71.3645 51.128C71.4605 51.368 71.6872 51.488 72.0445 51.488C72.2152 51.488 72.3752 51.472 72.5245 51.44C72.6792 51.408 72.7938 51.376 72.8685 51.344V52.992C72.7672 53.0293 72.6205 53.0667 72.4285 53.104C72.2365 53.1413 72.0178 53.16 71.7725 53.16ZM75.2973 53V44.504H77.3773V53H75.2973ZM76.3453 42.936C76.0039 42.936 75.7053 42.8453 75.4493 42.664C75.1986 42.4773 75.0733 42.2187 75.0733 41.888C75.0733 41.5627 75.1986 41.3093 75.4493 41.128C75.7053 40.9467 76.0039 40.856 76.3453 40.856C76.6813 40.856 76.9746 40.9467 77.2253 41.128C77.4759 41.3093 77.6013 41.5627 77.6013 41.888C77.6013 42.2187 77.4759 42.4773 77.2253 42.664C76.9746 42.8453 76.6813 42.936 76.3453 42.936ZM85.4703 53V49.232C85.4703 49.0187 85.4703 48.832 85.4703 48.672C85.4703 48.5067 85.4703 48.3573 85.4703 48.224C85.4703 47.84 85.4143 47.496 85.3023 47.192C85.1956 46.8827 85.0089 46.64 84.7423 46.464C84.4809 46.288 84.1183 46.2 83.6543 46.2C83.2489 46.2 82.8889 46.2987 82.5743 46.496C82.2596 46.688 82.0116 46.9547 81.8303 47.296C81.6543 47.632 81.5663 48.0213 81.5663 48.464L80.8543 48.024C80.8543 47.3147 81.0143 46.6853 81.3343 46.136C81.6596 45.5813 82.0943 45.1467 82.6383 44.832C83.1823 44.5173 83.7849 44.36 84.4463 44.36C85.1289 44.36 85.7023 44.4933 86.1663 44.76C86.6356 45.0267 86.9876 45.4053 87.2222 45.896C87.4623 46.3867 87.5823 46.9627 87.5823 47.624C87.5823 47.88 87.5823 48.168 87.5823 48.488C87.5823 48.808 87.5823 49.1227 87.5823 49.432V53H85.4703ZM79.4622 53V44.504H81.5663V53H79.4622ZM95.3149 52.16C95.8162 52.208 96.2562 52.3013 96.6349 52.44C97.0135 52.5787 97.3095 52.784 97.5229 53.056C97.7362 53.3333 97.8429 53.7013 97.8429 54.16C97.8429 54.672 97.6695 55.1147 97.3229 55.488C96.9762 55.8613 96.4669 56.1493 95.7949 56.352C95.1282 56.5547 94.3069 56.656 93.3309 56.656C91.9122 56.656 90.8215 56.4507 90.0589 56.04C89.2962 55.6347 88.9149 55.0827 88.9149 54.384C88.9149 54.1867 88.9389 54.008 88.9869 53.848C89.0349 53.688 89.0935 53.5547 89.1629 53.448L91.0909 53.728C91.0589 53.7707 91.0269 53.8373 90.9949 53.928C90.9629 54.024 90.9469 54.1387 90.9469 54.272C90.9469 54.6027 91.1682 54.84 91.6109 54.984C92.0589 55.1333 92.6535 55.208 93.3949 55.208C93.9389 55.208 94.3922 55.1707 94.7549 55.096C95.1229 55.0213 95.4002 54.9147 95.5869 54.776C95.7789 54.6373 95.8749 54.4747 95.8749 54.288C95.8749 54.0107 95.7495 53.832 95.4989 53.752C95.2482 53.672 94.9495 53.6187 94.6029 53.592L91.3789 53.296C90.8029 53.2373 90.3282 53.0667 89.9549 52.784C89.5869 52.5013 89.4029 52.128 89.4029 51.664C89.4029 51.3813 89.4775 51.12 89.6269 50.88C89.7815 50.64 89.9575 50.44 90.1549 50.28C90.3522 50.1147 90.5202 50.0133 90.6589 49.976L91.8589 50.568C91.7469 50.584 91.6135 50.656 91.4589 50.784C91.3095 50.912 91.2349 51.064 91.2349 51.24C91.2349 51.4053 91.3095 51.544 91.4589 51.656C91.6082 51.7627 91.8962 51.8373 92.3229 51.88L95.3149 52.16ZM96.2669 44.504H98.1549L97.3869 47.8C97.2429 48.4187 97.0109 48.9733 96.6909 49.464C96.3709 49.9547 95.9442 50.3413 95.4109 50.624C94.8775 50.9067 94.2055 51.048 93.3949 51.048C92.5522 51.048 91.8242 50.912 91.2109 50.64C90.6029 50.3627 90.1335 49.976 89.8029 49.48C89.4722 48.9787 89.3069 48.4027 89.3069 47.752C89.3069 47.0853 89.4749 46.4987 89.8109 45.992C90.1522 45.48 90.6189 45.08 91.2109 44.792C91.8082 44.504 92.4829 44.36 93.2349 44.36C93.8429 44.36 94.3895 44.4613 94.8749 44.664C95.3602 44.8613 95.7469 45.12 96.0349 45.44C96.3282 45.76 96.4855 46.1013 96.5069 46.464L96.0349 46.552L96.2669 44.504ZM93.3869 49.424C93.7975 49.424 94.1522 49.3573 94.4509 49.224C94.7495 49.0907 94.9815 48.8987 95.1469 48.648C95.3122 48.392 95.3949 48.0827 95.3949 47.72C95.3949 47.3627 95.3122 47.056 95.1469 46.8C94.9815 46.544 94.7495 46.3493 94.4509 46.216C94.1522 46.0773 93.8002 46.008 93.3949 46.008C93.0002 46.008 92.6509 46.0773 92.3469 46.216C92.0429 46.3547 91.8029 46.5547 91.6269 46.816C91.4562 47.072 91.3709 47.3787 91.3709 47.736C91.3709 48.0933 91.4535 48.4 91.6189 48.656C91.7895 48.9067 92.0242 49.0987 92.3229 49.232C92.6269 49.36 92.9815 49.424 93.3869 49.424ZM111.108 42.88H107.372L108.148 41.832V53H106.036V41.832L106.852 42.88H103.084V41.2H111.108V42.88ZM112.327 56.648C112.076 56.648 111.852 56.6347 111.655 56.608C111.457 56.5867 111.335 56.5653 111.287 56.544V54.904C111.356 54.936 111.473 54.96 111.639 54.976C111.809 54.9973 111.985 55.008 112.167 55.008C112.46 55.008 112.713 54.9493 112.927 54.832C113.145 54.7147 113.332 54.552 113.487 54.344C113.641 54.1413 113.764 53.904 113.855 53.632L114.039 53.096L111.111 44.504H113.311L115.319 51.592H115.063L117.023 44.504H119.183L116.207 53.52C115.999 54.144 115.745 54.6907 115.447 55.16C115.153 55.6293 114.761 55.9947 114.271 56.256C113.78 56.5173 113.132 56.648 112.327 56.648ZM120.54 56.496V44.504H122.644V56.496H120.54ZM125.324 53.176C124.663 53.176 124.05 53.0053 123.484 52.664C122.924 52.3173 122.471 51.8453 122.124 51.248C121.783 50.6507 121.612 49.9787 121.612 49.232C121.612 49.2107 121.612 49.192 121.612 49.176C121.612 49.1547 121.612 49.136 121.612 49.12L122.652 49.096C122.652 49.1067 122.652 49.12 122.652 49.136C122.652 49.152 122.652 49.1653 122.652 49.176C122.652 49.592 122.756 49.9627 122.964 50.288C123.172 50.608 123.442 50.8613 123.772 51.048C124.108 51.2293 124.466 51.32 124.844 51.32C125.458 51.32 125.98 51.1093 126.412 50.688C126.844 50.2667 127.06 49.6133 127.06 48.728C127.06 47.8373 126.844 47.1867 126.412 46.776C125.986 46.36 125.463 46.152 124.844 46.152C124.471 46.152 124.116 46.2427 123.78 46.424C123.45 46.6 123.178 46.8453 122.964 47.16C122.756 47.4747 122.652 47.8427 122.652 48.264L121.612 48.216C121.612 47.464 121.783 46.7973 122.124 46.216C122.471 45.6347 122.924 45.1813 123.484 44.856C124.05 44.5253 124.663 44.36 125.324 44.36C126.012 44.36 126.652 44.528 127.244 44.864C127.842 45.2 128.322 45.6933 128.684 46.344C129.052 46.9947 129.236 47.7893 129.236 48.728C129.236 49.6933 129.058 50.5067 128.7 51.168C128.343 51.8293 127.868 52.3307 127.276 52.672C126.684 53.008 126.034 53.176 125.324 53.176ZM131.762 49.432V47.936H137.706L137.466 48.336C137.466 48.304 137.466 48.2693 137.466 48.232C137.466 48.1893 137.466 48.1547 137.466 48.128C137.466 47.76 137.383 47.416 137.218 47.096C137.053 46.7707 136.802 46.5093 136.466 46.312C136.13 46.1093 135.703 46.008 135.186 46.008C134.674 46.008 134.229 46.1173 133.85 46.336C133.477 46.5493 133.186 46.8587 132.978 47.264C132.775 47.6693 132.674 48.1547 132.674 48.72C132.674 49.3013 132.773 49.8027 132.97 50.224C133.167 50.64 133.455 50.96 133.834 51.184C134.218 51.4027 134.685 51.512 135.234 51.512C135.607 51.512 135.93 51.4773 136.202 51.408C136.474 51.3387 136.695 51.2453 136.866 51.128C137.042 51.0053 137.173 50.8747 137.258 50.736C137.349 50.5973 137.402 50.4587 137.418 50.32H139.514C139.482 50.6773 139.362 51.0267 139.154 51.368C138.951 51.704 138.666 52.0107 138.298 52.288C137.93 52.56 137.482 52.7787 136.954 52.944C136.431 53.104 135.834 53.184 135.162 53.184C134.25 53.184 133.453 52.9973 132.77 52.624C132.087 52.2507 131.554 51.7307 131.17 51.064C130.791 50.3973 130.602 49.6347 130.602 48.776C130.602 47.896 130.794 47.1253 131.178 46.464C131.567 45.8027 132.106 45.288 132.794 44.92C133.482 44.5467 134.271 44.36 135.162 44.36C136.079 44.36 136.871 44.5467 137.538 44.92C138.21 45.2933 138.727 45.8133 139.09 46.48C139.453 47.1413 139.634 47.912 139.634 48.792C139.634 48.904 139.631 49.024 139.626 49.152C139.621 49.28 139.613 49.3733 139.602 49.432H131.762Z" fill="black"/>
<rect x="32.75" y="91.75" width="22.5" height="22.5" rx="3.25" fill="#0A69BB"/>
<rect x="32.75" y="91.75" width="22.5" height="22.5" rx="3.25" stroke="#0A69BB" stroke-width="1.5"/>
<g clip-path="url(#clip0_152_27021)">
<path d="M39.332 102.999L42.6654 106.333L49.332 99.666" stroke="#E9EBFD" stroke-width="1.5" stroke-linecap="round" stroke-linejoin="round"/>
</g>
<path d="M73.184 107V95.2H74.528V107H73.184ZM83.0228 107V102.928C83.0228 102.683 83.0228 102.483 83.0228 102.328C83.0228 102.168 83.0228 102.016 83.0228 101.872C83.0228 101.429 82.9481 101.043 82.7988 100.712C82.6494 100.381 82.4148 100.125 82.0948 99.944C81.7748 99.7627 81.3561 99.672 80.8388 99.672C80.3854 99.672 79.9641 99.7893 79.5748 100.024C79.1908 100.253 78.8814 100.565 78.6468 100.96C78.4174 101.349 78.3028 101.787 78.3028 102.272L77.5268 101.976C77.5268 101.309 77.6894 100.704 78.0148 100.16C78.3454 99.616 78.7828 99.184 79.3268 98.864C79.8761 98.5387 80.4734 98.376 81.1188 98.376C81.7748 98.376 82.3481 98.5013 82.8388 98.752C83.3294 99.0027 83.7081 99.3627 83.9748 99.832C84.2468 100.296 84.3828 100.856 84.3828 101.512C84.3828 101.747 84.3828 102.003 84.3828 102.28C84.3828 102.557 84.3828 102.816 84.3828 103.056V107H83.0228ZM76.9428 107V98.504H78.3028V107H76.9428ZM89.8809 107.128C89.6195 107.128 89.3635 107.099 89.1129 107.04C88.8622 106.981 88.6355 106.877 88.4329 106.728C88.2355 106.573 88.0782 106.357 87.9609 106.08C87.8435 105.797 87.7849 105.435 87.7849 104.992C87.7849 104.88 87.7849 104.765 87.7849 104.648C87.7849 104.525 87.7849 104.397 87.7849 104.264V99.704H85.7129V98.504H87.0409C87.2222 98.504 87.3635 98.4987 87.4649 98.488C87.5662 98.472 87.6382 98.4373 87.6809 98.384C87.7289 98.3253 87.7582 98.2373 87.7689 98.12C87.7795 97.9973 87.7849 97.8293 87.7849 97.616V95.688H89.1529V98.504H91.8089V99.704H89.1529V103.824C89.1529 103.941 89.1529 104.056 89.1529 104.168C89.1529 104.28 89.1529 104.384 89.1529 104.48C89.1529 104.933 89.2062 105.288 89.3129 105.544C89.4249 105.8 89.6729 105.928 90.0569 105.928C90.2115 105.928 90.3582 105.915 90.4969 105.888C90.6355 105.861 90.7395 105.835 90.8089 105.808V106.992C90.7182 107.024 90.5902 107.053 90.4249 107.08C90.2649 107.112 90.0835 107.128 89.8809 107.128ZM93.7109 103.296V102.08H100.279L100.039 102.48C100.039 102.448 100.039 102.419 100.039 102.392C100.039 102.36 100.039 102.331 100.039 102.304C100.039 101.813 99.9349 101.365 99.7269 100.96C99.5242 100.549 99.2202 100.221 98.8149 99.976C98.4095 99.7307 97.9082 99.608 97.3109 99.608C96.7082 99.608 96.1775 99.736 95.7189 99.992C95.2602 100.248 94.9029 100.611 94.6469 101.08C94.3909 101.544 94.2629 102.099 94.2629 102.744C94.2629 103.4 94.3855 103.965 94.6309 104.44C94.8815 104.915 95.2362 105.28 95.6949 105.536C96.1535 105.792 96.6975 105.92 97.3269 105.92C97.7749 105.92 98.1642 105.875 98.4949 105.784C98.8255 105.688 99.0975 105.563 99.3109 105.408C99.5295 105.248 99.6949 105.075 99.8069 104.888C99.9189 104.701 99.9855 104.515 100.007 104.328H101.367C101.34 104.669 101.234 105.008 101.047 105.344C100.86 105.68 100.596 105.987 100.255 106.264C99.9135 106.536 99.4949 106.755 98.9989 106.92C98.5029 107.085 97.9322 107.168 97.2869 107.168C96.4335 107.168 95.6815 106.981 95.0309 106.608C94.3802 106.235 93.8682 105.717 93.4949 105.056C93.1269 104.395 92.9429 103.635 92.9429 102.776C92.9429 101.907 93.1295 101.144 93.5029 100.488C93.8762 99.8267 94.3909 99.3093 95.0469 98.936C95.7029 98.5627 96.4522 98.376 97.2949 98.376C98.1535 98.376 98.8975 98.5627 99.5269 98.936C100.156 99.3093 100.642 99.8213 100.983 100.472C101.324 101.117 101.495 101.853 101.495 102.68C101.495 102.765 101.492 102.877 101.487 103.016C101.482 103.155 101.474 103.248 101.463 103.296H93.7109ZM103.615 107V98.504H104.975V101.112L104.527 100.952C104.559 100.637 104.639 100.328 104.767 100.024C104.895 99.7147 105.071 99.4373 105.295 99.192C105.524 98.9413 105.809 98.744 106.151 98.6C106.492 98.4507 106.892 98.376 107.351 98.376C107.692 98.376 107.969 98.4053 108.183 98.464C108.401 98.5173 108.537 98.56 108.591 98.592L108.239 99.928C108.185 99.8907 108.076 99.8427 107.911 99.784C107.751 99.7253 107.521 99.696 107.223 99.696C106.78 99.696 106.412 99.776 106.119 99.936C105.831 100.096 105.601 100.309 105.431 100.576C105.265 100.837 105.148 101.123 105.079 101.432C105.009 101.741 104.975 102.048 104.975 102.352V107H103.615ZM116.844 98.504L113.996 107H112.212L109.3 98.504H110.708L113.212 106.28H112.996L115.436 98.504H116.844ZM118.632 107V98.504H119.976V107H118.632ZM119.312 96.552C119.061 96.552 118.843 96.4827 118.656 96.344C118.475 96.2 118.384 96.0053 118.384 95.76C118.384 95.52 118.475 95.3307 118.656 95.192C118.843 95.048 119.061 94.976 119.312 94.976C119.563 94.976 119.779 95.048 119.96 95.192C120.141 95.3307 120.232 95.52 120.232 95.76C120.232 96.0053 120.141 96.2 119.96 96.344C119.779 96.4827 119.563 96.552 119.312 96.552ZM122.945 103.296V102.08H129.513L129.273 102.48C129.273 102.448 129.273 102.419 129.273 102.392C129.273 102.36 129.273 102.331 129.273 102.304C129.273 101.813 129.169 101.365 128.961 100.96C128.759 100.549 128.455 100.221 128.049 99.976C127.644 99.7307 127.143 99.608 126.545 99.608C125.943 99.608 125.412 99.736 124.953 99.992C124.495 100.248 124.137 100.611 123.881 101.08C123.625 101.544 123.497 102.099 123.497 102.744C123.497 103.4 123.62 103.965 123.865 104.44C124.116 104.915 124.471 105.28 124.929 105.536C125.388 105.792 125.932 105.92 126.561 105.92C127.009 105.92 127.399 105.875 127.729 105.784C128.06 105.688 128.332 105.563 128.545 105.408C128.764 105.248 128.929 105.075 129.041 104.888C129.153 104.701 129.22 104.515 129.241 104.328H130.601C130.575 104.669 130.468 105.008 130.281 105.344C130.095 105.68 129.831 105.987 129.489 106.264C129.148 106.536 128.729 106.755 128.233 106.92C127.737 107.085 127.167 107.168 126.521 107.168C125.668 107.168 124.916 106.981 124.265 106.608C123.615 106.235 123.103 105.717 122.729 105.056C122.361 104.395 122.177 103.635 122.177 102.776C122.177 101.907 122.364 101.144 122.737 100.488C123.111 99.8267 123.625 99.3093 124.281 98.936C124.937 98.5627 125.687 98.376 126.529 98.376C127.388 98.376 128.132 98.5627 128.761 98.936C129.391 99.3093 129.876 99.8213 130.217 100.472C130.559 101.117 130.729 101.853 130.729 102.68C130.729 102.765 130.727 102.877 130.721 103.016C130.716 103.155 130.708 103.248 130.697 103.296H122.945ZM139.455 107L137.079 98.504H138.287L140.535 106.4H140.287L141.775 98.504H143.191L141.359 107H139.455ZM133.711 107L131.863 98.504H133.279L134.783 106.4H134.535L136.759 98.504H137.967L135.623 107H133.711ZM152.368 107.16C151.552 107.16 150.853 107.032 150.272 106.776C149.696 106.515 149.253 106.123 148.944 105.6C148.635 105.077 148.48 104.427 148.48 103.648C148.48 103.541 148.48 103.451 148.48 103.376C148.48 103.301 148.48 103.211 148.48 103.104H149.848C149.848 103.205 149.848 103.291 149.848 103.36C149.848 103.429 149.848 103.517 149.848 103.624C149.848 104.44 150.061 105.029 150.488 105.392C150.915 105.749 151.536 105.928 152.352 105.928C153.195 105.928 153.832 105.784 154.264 105.496C154.696 105.208 154.912 104.741 154.912 104.096C154.912 103.643 154.787 103.267 154.536 102.968C154.291 102.664 153.949 102.408 153.512 102.2C153.075 101.987 152.565 101.792 151.984 101.616C151.328 101.413 150.741 101.157 150.224 100.848C149.712 100.539 149.307 100.157 149.008 99.704C148.715 99.2453 148.568 98.688 148.568 98.032C148.568 97.392 148.723 96.8507 149.032 96.408C149.347 95.9653 149.784 95.6293 150.344 95.4C150.904 95.1707 151.555 95.056 152.296 95.056C153.08 95.056 153.76 95.1787 154.336 95.424C154.917 95.664 155.365 96.032 155.68 96.528C156 97.0187 156.16 97.6373 156.16 98.384C156.16 98.5013 156.16 98.6027 156.16 98.688C156.16 98.768 156.16 98.8667 156.16 98.984H154.792C154.792 98.8827 154.792 98.792 154.792 98.712C154.792 98.632 154.792 98.5413 154.792 98.44C154.792 97.6613 154.581 97.1093 154.16 96.784C153.739 96.4533 153.125 96.288 152.32 96.288C151.547 96.288 150.949 96.424 150.528 96.696C150.107 96.968 149.896 97.4133 149.896 98.032C149.896 98.496 150.024 98.88 150.28 99.184C150.541 99.4827 150.896 99.7387 151.344 99.952C151.792 100.16 152.304 100.36 152.88 100.552C153.579 100.781 154.179 101.043 154.68 101.336C155.187 101.624 155.573 101.984 155.84 102.416C156.112 102.848 156.248 103.392 156.248 104.048C156.248 104.704 156.091 105.264 155.776 105.728C155.467 106.192 155.021 106.547 154.44 106.792C153.864 107.037 153.173 107.16 152.368 107.16ZM162.319 107.16C161.508 107.16 160.772 106.984 160.111 106.632C159.449 106.275 158.924 105.765 158.535 105.104C158.151 104.443 157.959 103.656 157.959 102.744C157.959 101.832 158.151 101.051 158.535 100.4C158.924 99.744 159.449 99.2427 160.111 98.896C160.772 98.5493 161.508 98.376 162.319 98.376C162.937 98.376 163.489 98.472 163.975 98.664C164.46 98.8507 164.871 99.1013 165.207 99.416C165.543 99.7307 165.799 100.077 165.975 100.456C166.156 100.829 166.247 101.203 166.247 101.576C166.247 101.581 166.247 101.589 166.247 101.6C166.247 101.611 166.247 101.621 166.247 101.632H164.895C164.895 101.605 164.892 101.576 164.887 101.544C164.881 101.507 164.876 101.469 164.871 101.432C164.828 101.075 164.692 100.763 164.463 100.496C164.233 100.224 163.935 100.011 163.567 99.856C163.199 99.7013 162.78 99.624 162.311 99.624C161.783 99.624 161.292 99.7387 160.839 99.968C160.391 100.192 160.028 100.536 159.751 101C159.479 101.459 159.343 102.04 159.343 102.744C159.343 103.443 159.479 104.027 159.751 104.496C160.023 104.965 160.383 105.32 160.831 105.56C161.284 105.795 161.777 105.912 162.311 105.912C162.887 105.912 163.361 105.821 163.735 105.64C164.108 105.459 164.388 105.219 164.575 104.92C164.767 104.616 164.873 104.291 164.895 103.944H166.247C166.247 104.328 166.161 104.712 165.991 105.096C165.82 105.475 165.569 105.821 165.239 106.136C164.908 106.445 164.497 106.693 164.007 106.88C163.521 107.067 162.959 107.16 162.319 107.16ZM174.453 107V103.84C174.453 103.691 174.453 103.515 174.453 103.312C174.453 103.104 174.453 102.896 174.453 102.688C174.453 102.475 174.453 102.293 174.453 102.144C174.453 101.328 174.277 100.712 173.925 100.296C173.578 99.88 173.026 99.672 172.269 99.672C171.762 99.672 171.317 99.7707 170.933 99.968C170.554 100.165 170.258 100.435 170.045 100.776C169.831 101.117 169.725 101.504 169.725 101.936L168.861 101.672C168.861 101.064 169.018 100.512 169.333 100.016C169.653 99.5147 170.087 99.1173 170.637 98.824C171.191 98.5253 171.818 98.376 172.517 98.376C173.535 98.376 174.338 98.6827 174.925 99.296C175.517 99.9093 175.813 100.757 175.813 101.84C175.813 102.123 175.813 102.448 175.813 102.816C175.813 103.184 175.813 103.571 175.813 103.976V107H174.453ZM168.365 107V94.496H169.725V107H168.365ZM178.617 103.296V102.08H185.185L184.945 102.48C184.945 102.448 184.945 102.419 184.945 102.392C184.945 102.36 184.945 102.331 184.945 102.304C184.945 101.813 184.841 101.365 184.633 100.96C184.43 100.549 184.126 100.221 183.721 99.976C183.316 99.7307 182.814 99.608 182.217 99.608C181.614 99.608 181.084 99.736 180.625 99.992C180.166 100.248 179.809 100.611 179.553 101.08C179.297 101.544 179.169 102.099 179.169 102.744C179.169 103.4 179.292 103.965 179.537 104.44C179.788 104.915 180.142 105.28 180.601 105.536C181.06 105.792 181.604 105.92 182.233 105.92C182.681 105.92 183.07 105.875 183.401 105.784C183.732 105.688 184.004 105.563 184.217 105.408C184.436 105.248 184.601 105.075 184.713 104.888C184.825 104.701 184.892 104.515 184.913 104.328H186.273C186.246 104.669 186.14 105.008 185.953 105.344C185.766 105.68 185.502 105.987 185.161 106.264C184.82 106.536 184.401 106.755 183.905 106.92C183.409 107.085 182.838 107.168 182.193 107.168C181.34 107.168 180.588 106.981 179.937 106.608C179.286 106.235 178.774 105.717 178.401 105.056C178.033 104.395 177.849 103.635 177.849 102.776C177.849 101.907 178.036 101.144 178.409 100.488C178.782 99.8267 179.297 99.3093 179.953 98.936C180.609 98.5627 181.358 98.376 182.201 98.376C183.06 98.376 183.804 98.5627 184.433 98.936C185.062 99.3093 185.548 99.8213 185.889 100.472C186.23 101.117 186.401 101.853 186.401 102.68C186.401 102.765 186.398 102.877 186.393 103.016C186.388 103.155 186.38 103.248 186.369 103.296H178.617ZM192.025 107.16C191.326 107.16 190.686 106.992 190.105 106.656C189.524 106.315 189.06 105.816 188.713 105.16C188.366 104.499 188.193 103.693 188.193 102.744C188.193 101.811 188.369 101.019 188.721 100.368C189.073 99.7173 189.54 99.224 190.121 98.888C190.702 98.5467 191.337 98.376 192.025 98.376C192.681 98.376 193.294 98.5333 193.865 98.848C194.441 99.1573 194.905 99.5893 195.257 100.144C195.609 100.699 195.785 101.341 195.785 102.072C195.785 102.088 195.785 102.104 195.785 102.12C195.785 102.136 195.785 102.152 195.785 102.168L194.809 102.208C194.809 102.192 194.809 102.176 194.809 102.16C194.809 102.139 194.809 102.12 194.809 102.104C194.809 101.64 194.686 101.221 194.441 100.848C194.201 100.475 193.884 100.179 193.489 99.96C193.094 99.736 192.67 99.624 192.217 99.624C191.46 99.624 190.833 99.88 190.337 100.392C189.841 100.899 189.593 101.683 189.593 102.744C189.593 103.8 189.841 104.587 190.337 105.104C190.838 105.616 191.465 105.872 192.217 105.872C192.692 105.872 193.124 105.757 193.513 105.528C193.908 105.299 194.222 104.992 194.457 104.608C194.692 104.219 194.809 103.784 194.809 103.304L195.785 103.328C195.785 104.053 195.617 104.707 195.281 105.288C194.945 105.864 194.492 106.32 193.921 106.656C193.356 106.992 192.724 107.16 192.025 107.16ZM194.809 107V94.496H196.177V107H194.809ZM201.704 107.152C201.096 107.152 200.589 107.048 200.184 106.84C199.778 106.627 199.456 106.352 199.216 106.016C198.981 105.68 198.813 105.317 198.712 104.928C198.616 104.533 198.568 104.155 198.568 103.792C198.568 103.589 198.568 103.381 198.568 103.168C198.568 102.949 198.568 102.731 198.568 102.512V98.504H199.936V102.336C199.936 102.533 199.936 102.728 199.936 102.92C199.936 103.112 199.936 103.293 199.936 103.464C199.936 103.896 199.994 104.296 200.112 104.664C200.234 105.032 200.445 105.331 200.744 105.56C201.042 105.784 201.453 105.896 201.976 105.896C202.466 105.896 202.896 105.749 203.264 105.456C203.632 105.157 203.92 104.787 204.128 104.344C204.336 103.896 204.44 103.451 204.44 103.008L205.232 103.336C205.232 103.805 205.149 104.267 204.984 104.72C204.818 105.168 204.581 105.576 204.272 105.944C203.968 106.312 203.597 106.605 203.16 106.824C202.728 107.043 202.242 107.152 201.704 107.152ZM204.44 107V98.504H205.8V107H204.44ZM209.626 94.496V107H208.282V94.496H209.626ZM212.555 103.296V102.08H219.123L218.883 102.48C218.883 102.448 218.883 102.419 218.883 102.392C218.883 102.36 218.883 102.331 218.883 102.304C218.883 101.813 218.779 101.365 218.571 100.96C218.368 100.549 218.064 100.221 217.659 99.976C217.253 99.7307 216.752 99.608 216.155 99.608C215.552 99.608 215.021 99.736 214.563 99.992C214.104 100.248 213.747 100.611 213.491 101.08C213.235 101.544 213.107 102.099 213.107 102.744C213.107 103.4 213.229 103.965 213.475 104.44C213.725 104.915 214.08 105.28 214.539 105.536C214.997 105.792 215.541 105.92 216.171 105.92C216.619 105.92 217.008 105.875 217.339 105.784C217.669 105.688 217.941 105.563 218.155 105.408C218.373 105.248 218.539 105.075 218.651 104.888C218.763 104.701 218.829 104.515 218.851 104.328H220.211C220.184 104.669 220.077 105.008 219.891 105.344C219.704 105.68 219.44 105.987 219.099 106.264C218.757 106.536 218.339 106.755 217.843 106.92C217.347 107.085 216.776 107.168 216.131 107.168C215.277 107.168 214.525 106.981 213.875 106.608C213.224 106.235 212.712 105.717 212.339 105.056C211.971 104.395 211.787 103.635 211.787 102.776C211.787 101.907 211.973 101.144 212.347 100.488C212.72 99.8267 213.235 99.3093 213.891 98.936C214.547 98.5627 215.296 98.376 216.139 98.376C216.997 98.376 217.741 98.5627 218.371 98.936C219 99.3093 219.485 99.8213 219.827 100.472C220.168 101.117 220.339 101.853 220.339 102.68C220.339 102.765 220.336 102.877 220.331 103.016C220.325 103.155 220.317 103.248 220.307 103.296H212.555Z" fill="#515B6F"/>
<rect x="32.75" y="149.75" width="22.5" height="22.5" rx="3.25" fill="#56CDAD"/>
<rect x="32.75" y="149.75" width="22.5" height="22.5" rx="3.25" stroke="#56CDAD" stroke-width="1.5"/>
<g clip-path="url(#clip1_152_27021)">
<path d="M39.332 160.999L42.6654 164.333L49.332 157.666" stroke="#E9EBFD" stroke-width="1.5" stroke-linecap="round" stroke-linejoin="round"/>
</g>
<path d="M73.184 165V153.2H74.528V165H73.184ZM83.0228 165V160.928C83.0228 160.683 83.0228 160.483 83.0228 160.328C83.0228 160.168 83.0228 160.016 83.0228 159.872C83.0228 159.429 82.9481 159.043 82.7988 158.712C82.6494 158.381 82.4148 158.125 82.0948 157.944C81.7748 157.763 81.3561 157.672 80.8388 157.672C80.3854 157.672 79.9641 157.789 79.5748 158.024C79.1908 158.253 78.8814 158.565 78.6468 158.96C78.4174 159.349 78.3028 159.787 78.3028 160.272L77.5268 159.976C77.5268 159.309 77.6894 158.704 78.0148 158.16C78.3454 157.616 78.7828 157.184 79.3268 156.864C79.8761 156.539 80.4734 156.376 81.1188 156.376C81.7748 156.376 82.3481 156.501 82.8388 156.752C83.3294 157.003 83.7081 157.363 83.9748 157.832C84.2468 158.296 84.3828 158.856 84.3828 159.512C84.3828 159.747 84.3828 160.003 84.3828 160.28C84.3828 160.557 84.3828 160.816 84.3828 161.056V165H83.0228ZM76.9428 165V156.504H78.3028V165H76.9428ZM89.8809 165.128C89.6195 165.128 89.3635 165.099 89.1129 165.04C88.8622 164.981 88.6355 164.877 88.4329 164.728C88.2355 164.573 88.0782 164.357 87.9609 164.08C87.8435 163.797 87.7849 163.435 87.7849 162.992C87.7849 162.88 87.7849 162.765 87.7849 162.648C87.7849 162.525 87.7849 162.397 87.7849 162.264V157.704H85.7129V156.504H87.0409C87.2222 156.504 87.3635 156.499 87.4649 156.488C87.5662 156.472 87.6382 156.437 87.6809 156.384C87.7289 156.325 87.7582 156.237 87.7689 156.12C87.7795 155.997 87.7849 155.829 87.7849 155.616V153.688H89.1529V156.504H91.8089V157.704H89.1529V161.824C89.1529 161.941 89.1529 162.056 89.1529 162.168C89.1529 162.28 89.1529 162.384 89.1529 162.48C89.1529 162.933 89.2062 163.288 89.3129 163.544C89.4249 163.8 89.6729 163.928 90.0569 163.928C90.2115 163.928 90.3582 163.915 90.4969 163.888C90.6355 163.861 90.7395 163.835 90.8089 163.808V164.992C90.7182 165.024 90.5902 165.053 90.4249 165.08C90.2649 165.112 90.0835 165.128 89.8809 165.128ZM93.7109 161.296V160.08H100.279L100.039 160.48C100.039 160.448 100.039 160.419 100.039 160.392C100.039 160.36 100.039 160.331 100.039 160.304C100.039 159.813 99.9349 159.365 99.7269 158.96C99.5242 158.549 99.2202 158.221 98.8149 157.976C98.4095 157.731 97.9082 157.608 97.3109 157.608C96.7082 157.608 96.1775 157.736 95.7189 157.992C95.2602 158.248 94.9029 158.611 94.6469 159.08C94.3909 159.544 94.2629 160.099 94.2629 160.744C94.2629 161.4 94.3855 161.965 94.6309 162.44C94.8815 162.915 95.2362 163.28 95.6949 163.536C96.1535 163.792 96.6975 163.92 97.3269 163.92C97.7749 163.92 98.1642 163.875 98.4949 163.784C98.8255 163.688 99.0975 163.563 99.3109 163.408C99.5295 163.248 99.6949 163.075 99.8069 162.888C99.9189 162.701 99.9855 162.515 100.007 162.328H101.367C101.34 162.669 101.234 163.008 101.047 163.344C100.86 163.68 100.596 163.987 100.255 164.264C99.9135 164.536 99.4949 164.755 98.9989 164.92C98.5029 165.085 97.9322 165.168 97.2869 165.168C96.4335 165.168 95.6815 164.981 95.0309 164.608C94.3802 164.235 93.8682 163.717 93.4949 163.056C93.1269 162.395 92.9429 161.635 92.9429 160.776C92.9429 159.907 93.1295 159.144 93.5029 158.488C93.8762 157.827 94.3909 157.309 95.0469 156.936C95.7029 156.563 96.4522 156.376 97.2949 156.376C98.1535 156.376 98.8975 156.563 99.5269 156.936C100.156 157.309 100.642 157.821 100.983 158.472C101.324 159.117 101.495 159.853 101.495 160.68C101.495 160.765 101.492 160.877 101.487 161.016C101.482 161.155 101.474 161.248 101.463 161.296H93.7109ZM103.615 165V156.504H104.975V159.112L104.527 158.952C104.559 158.637 104.639 158.328 104.767 158.024C104.895 157.715 105.071 157.437 105.295 157.192C105.524 156.941 105.809 156.744 106.151 156.6C106.492 156.451 106.892 156.376 107.351 156.376C107.692 156.376 107.969 156.405 108.183 156.464C108.401 156.517 108.537 156.56 108.591 156.592L108.239 157.928C108.185 157.891 108.076 157.843 107.911 157.784C107.751 157.725 107.521 157.696 107.223 157.696C106.78 157.696 106.412 157.776 106.119 157.936C105.831 158.096 105.601 158.309 105.431 158.576C105.265 158.837 105.148 159.123 105.079 159.432C105.009 159.741 104.975 160.048 104.975 160.352V165H103.615ZM116.132 165V160.928C116.132 160.683 116.132 160.483 116.132 160.328C116.132 160.168 116.132 160.016 116.132 159.872C116.132 159.429 116.057 159.043 115.908 158.712C115.759 158.381 115.524 158.125 115.204 157.944C114.884 157.763 114.465 157.672 113.948 157.672C113.495 157.672 113.073 157.789 112.684 158.024C112.3 158.253 111.991 158.565 111.756 158.96C111.527 159.349 111.412 159.787 111.412 160.272L110.636 159.976C110.636 159.309 110.799 158.704 111.124 158.16C111.455 157.616 111.892 157.184 112.436 156.864C112.985 156.539 113.583 156.376 114.228 156.376C114.884 156.376 115.457 156.501 115.948 156.752C116.439 157.003 116.817 157.363 117.084 157.832C117.356 158.296 117.492 158.856 117.492 159.512C117.492 159.747 117.492 160.003 117.492 160.28C117.492 160.557 117.492 160.816 117.492 161.056V165H116.132ZM110.052 165V156.504H111.412V165H110.052ZM122.833 165.16C122.187 165.16 121.622 165.059 121.137 164.856C120.657 164.653 120.283 164.363 120.017 163.984C119.75 163.6 119.617 163.141 119.617 162.608C119.617 162.053 119.761 161.592 120.049 161.224C120.337 160.851 120.742 160.56 121.265 160.352C121.787 160.144 122.395 160.005 123.089 159.936C124.134 159.829 124.878 159.725 125.321 159.624C125.763 159.517 125.985 159.347 125.985 159.112C125.985 159.107 125.985 159.104 125.985 159.104C125.985 159.099 125.985 159.093 125.985 159.088C125.985 158.597 125.785 158.232 125.385 157.992C124.985 157.747 124.406 157.624 123.649 157.624C122.859 157.624 122.246 157.763 121.809 158.04C121.371 158.312 121.153 158.755 121.153 159.368H119.809C119.809 158.733 119.971 158.195 120.297 157.752C120.622 157.304 121.073 156.963 121.649 156.728C122.23 156.493 122.899 156.376 123.657 156.376C124.35 156.376 124.974 156.483 125.529 156.696C126.089 156.904 126.531 157.216 126.857 157.632C127.187 158.043 127.353 158.552 127.353 159.16C127.353 159.272 127.353 159.384 127.353 159.496C127.353 159.603 127.353 159.712 127.353 159.824V163.4C127.353 163.587 127.361 163.768 127.377 163.944C127.393 164.12 127.419 164.275 127.457 164.408C127.505 164.568 127.558 164.699 127.617 164.8C127.675 164.896 127.723 164.963 127.761 165H126.393C126.366 164.973 126.326 164.912 126.273 164.816C126.219 164.715 126.169 164.597 126.121 164.464C126.083 164.357 126.054 164.224 126.033 164.064C126.011 163.899 126.001 163.728 126.001 163.552L126.225 163.704C126.059 163.992 125.817 164.245 125.497 164.464C125.182 164.683 124.801 164.853 124.353 164.976C123.905 165.099 123.398 165.16 122.833 165.16ZM123.049 163.936C123.598 163.936 124.094 163.853 124.537 163.688C124.979 163.517 125.331 163.267 125.593 162.936C125.854 162.605 125.985 162.195 125.985 161.704V160.016L126.289 160.528C125.947 160.661 125.521 160.771 125.009 160.856C124.502 160.936 123.971 161.003 123.417 161.056C122.611 161.131 122.003 161.272 121.593 161.48C121.187 161.688 120.985 162.037 120.985 162.528C120.985 162.992 121.153 163.344 121.489 163.584C121.825 163.819 122.345 163.936 123.049 163.936ZM131.079 152.496V165H129.735V152.496H131.079ZM145.752 153.2H148.104V165H146.808V154.288L146.848 154.304L143.84 165H141.888L138.864 154.296L138.904 154.28V165H137.608V153.2H139.96L142.856 163.904H142.84L145.752 153.2ZM151.039 161.296V160.08H157.607L157.367 160.48C157.367 160.448 157.367 160.419 157.367 160.392C157.367 160.36 157.367 160.331 157.367 160.304C157.367 159.813 157.263 159.365 157.055 158.96C156.852 158.549 156.548 158.221 156.143 157.976C155.738 157.731 155.236 157.608 154.639 157.608C154.036 157.608 153.506 157.736 153.047 157.992C152.588 158.248 152.231 158.611 151.975 159.08C151.719 159.544 151.591 160.099 151.591 160.744C151.591 161.4 151.714 161.965 151.959 162.44C152.21 162.915 152.564 163.28 153.023 163.536C153.482 163.792 154.026 163.92 154.655 163.92C155.103 163.92 155.492 163.875 155.823 163.784C156.154 163.688 156.426 163.563 156.639 163.408C156.858 163.248 157.023 163.075 157.135 162.888C157.247 162.701 157.314 162.515 157.335 162.328H158.695C158.668 162.669 158.562 163.008 158.375 163.344C158.188 163.68 157.924 163.987 157.583 164.264C157.242 164.536 156.823 164.755 156.327 164.92C155.831 165.085 155.26 165.168 154.615 165.168C153.762 165.168 153.01 164.981 152.359 164.608C151.708 164.235 151.196 163.717 150.823 163.056C150.455 162.395 150.271 161.635 150.271 160.776C150.271 159.907 150.458 159.144 150.831 158.488C151.204 157.827 151.719 157.309 152.375 156.936C153.031 156.563 153.78 156.376 154.623 156.376C155.482 156.376 156.226 156.563 156.855 156.936C157.484 157.309 157.97 157.821 158.311 158.472C158.652 159.117 158.823 159.853 158.823 160.68C158.823 160.765 158.82 160.877 158.815 161.016C158.81 161.155 158.802 161.248 158.791 161.296H151.039ZM161.383 161.296V160.08H167.951L167.711 160.48C167.711 160.448 167.711 160.419 167.711 160.392C167.711 160.36 167.711 160.331 167.711 160.304C167.711 159.813 167.607 159.365 167.399 158.96C167.196 158.549 166.892 158.221 166.487 157.976C166.081 157.731 165.58 157.608 164.983 157.608C164.38 157.608 163.849 157.736 163.391 157.992C162.932 158.248 162.575 158.611 162.319 159.08C162.063 159.544 161.935 160.099 161.935 160.744C161.935 161.4 162.057 161.965 162.303 162.44C162.553 162.915 162.908 163.28 163.367 163.536C163.825 163.792 164.369 163.92 164.999 163.92C165.447 163.92 165.836 163.875 166.167 163.784C166.497 163.688 166.769 163.563 166.983 163.408C167.201 163.248 167.367 163.075 167.479 162.888C167.591 162.701 167.657 162.515 167.679 162.328H169.039C169.012 162.669 168.905 163.008 168.719 163.344C168.532 163.68 168.268 163.987 167.927 164.264C167.585 164.536 167.167 164.755 166.671 164.92C166.175 165.085 165.604 165.168 164.959 165.168C164.105 165.168 163.353 164.981 162.703 164.608C162.052 164.235 161.54 163.717 161.167 163.056C160.799 162.395 160.615 161.635 160.615 160.776C160.615 159.907 160.801 159.144 161.175 158.488C161.548 157.827 162.063 157.309 162.719 156.936C163.375 156.563 164.124 156.376 164.967 156.376C165.825 156.376 166.569 156.563 167.199 156.936C167.828 157.309 168.313 157.821 168.655 158.472C168.996 159.117 169.167 159.853 169.167 160.68C169.167 160.765 169.164 160.877 169.159 161.016C169.153 161.155 169.145 161.248 169.135 161.296H161.383ZM174.475 165.128C174.213 165.128 173.957 165.099 173.707 165.04C173.456 164.981 173.229 164.877 173.027 164.728C172.829 164.573 172.672 164.357 172.555 164.08C172.437 163.797 172.379 163.435 172.379 162.992C172.379 162.88 172.379 162.765 172.379 162.648C172.379 162.525 172.379 162.397 172.379 162.264V157.704H170.307V156.504H171.635C171.816 156.504 171.957 156.499 172.059 156.488C172.16 156.472 172.232 156.437 172.275 156.384C172.323 156.325 172.352 156.237 172.363 156.12C172.373 155.997 172.379 155.829 172.379 155.616V153.688H173.747V156.504H176.403V157.704H173.747V161.824C173.747 161.941 173.747 162.056 173.747 162.168C173.747 162.28 173.747 162.384 173.747 162.48C173.747 162.933 173.8 163.288 173.907 163.544C174.019 163.8 174.267 163.928 174.651 163.928C174.805 163.928 174.952 163.915 175.091 163.888C175.229 163.861 175.333 163.835 175.403 163.808V164.992C175.312 165.024 175.184 165.053 175.019 165.08C174.859 165.112 174.677 165.128 174.475 165.128ZM178.226 165V156.504H179.57V165H178.226ZM178.906 154.552C178.655 154.552 178.437 154.483 178.25 154.344C178.069 154.2 177.978 154.005 177.978 153.76C177.978 153.52 178.069 153.331 178.25 153.192C178.437 153.048 178.655 152.976 178.906 152.976C179.157 152.976 179.373 153.048 179.554 153.192C179.735 153.331 179.826 153.52 179.826 153.76C179.826 154.005 179.735 154.2 179.554 154.344C179.373 154.483 179.157 154.552 178.906 154.552ZM188.179 165V160.928C188.179 160.683 188.179 160.483 188.179 160.328C188.179 160.168 188.179 160.016 188.179 159.872C188.179 159.429 188.104 159.043 187.955 158.712C187.806 158.381 187.571 158.125 187.251 157.944C186.931 157.763 186.512 157.672 185.995 157.672C185.542 157.672 185.12 157.789 184.731 158.024C184.347 158.253 184.038 158.565 183.803 158.96C183.574 159.349 183.459 159.787 183.459 160.272L182.683 159.976C182.683 159.309 182.846 158.704 183.171 158.16C183.502 157.616 183.939 157.184 184.483 156.864C185.032 156.539 185.63 156.376 186.275 156.376C186.931 156.376 187.504 156.501 187.995 156.752C188.486 157.003 188.864 157.363 189.131 157.832C189.403 158.296 189.539 158.856 189.539 159.512C189.539 159.747 189.539 160.003 189.539 160.28C189.539 160.557 189.539 160.816 189.539 161.056V165H188.179ZM182.099 165V156.504H183.459V165H182.099ZM197.336 164.48C197.794 164.517 198.197 164.603 198.544 164.736C198.896 164.864 199.17 165.053 199.368 165.304C199.565 165.56 199.664 165.893 199.664 166.304C199.664 166.757 199.509 167.157 199.2 167.504C198.89 167.856 198.421 168.131 197.792 168.328C197.162 168.525 196.37 168.624 195.416 168.624C194.066 168.624 193.048 168.427 192.36 168.032C191.672 167.643 191.328 167.109 191.328 166.432C191.328 166.219 191.352 166.029 191.4 165.864C191.453 165.704 191.512 165.573 191.576 165.472L192.872 165.664C192.829 165.723 192.786 165.811 192.743 165.928C192.706 166.051 192.688 166.192 192.688 166.352C192.688 166.779 192.93 167.077 193.416 167.248C193.901 167.424 194.589 167.512 195.48 167.512C196.146 167.512 196.693 167.467 197.12 167.376C197.546 167.285 197.864 167.155 198.072 166.984C198.28 166.813 198.384 166.613 198.384 166.384C198.384 166.037 198.237 165.821 197.944 165.736C197.656 165.656 197.298 165.6 196.872 165.568L193.64 165.328C193.101 165.285 192.661 165.12 192.32 164.832C191.984 164.539 191.816 164.184 191.816 163.768C191.816 163.512 191.877 163.269 192 163.04C192.128 162.811 192.274 162.619 192.44 162.464C192.61 162.304 192.762 162.208 192.896 162.176L193.968 162.664C193.834 162.685 193.669 162.779 193.472 162.944C193.28 163.104 193.184 163.293 193.184 163.512C193.184 163.709 193.261 163.872 193.416 164C193.57 164.123 193.877 164.203 194.336 164.24L197.336 164.48ZM198.512 156.504H199.792L199.264 159.848C199.168 160.472 198.968 161.037 198.664 161.544C198.36 162.045 197.944 162.445 197.416 162.744C196.893 163.037 196.245 163.184 195.472 163.184C194.666 163.184 193.978 163.037 193.408 162.744C192.837 162.451 192.4 162.051 192.096 161.544C191.792 161.032 191.64 160.456 191.64 159.816C191.64 159.165 191.797 158.581 192.112 158.064C192.432 157.541 192.874 157.131 193.44 156.832C194.005 156.528 194.653 156.376 195.384 156.376C196.04 156.376 196.613 156.491 197.104 156.72C197.594 156.944 197.981 157.227 198.264 157.568C198.552 157.909 198.712 158.253 198.744 158.6L198.232 158.632L198.512 156.504ZM195.464 161.968C195.981 161.968 196.424 161.883 196.792 161.712C197.165 161.541 197.45 161.293 197.648 160.968C197.85 160.643 197.952 160.248 197.952 159.784C197.952 159.336 197.85 158.949 197.648 158.624C197.45 158.293 197.165 158.04 196.792 157.864C196.424 157.683 195.984 157.592 195.472 157.592C194.981 157.592 194.546 157.685 194.168 157.872C193.794 158.053 193.501 158.309 193.288 158.64C193.08 158.971 192.976 159.36 192.976 159.808C192.976 160.261 193.074 160.651 193.272 160.976C193.474 161.296 193.76 161.541 194.128 161.712C194.501 161.883 194.946 161.968 195.464 161.968Z" fill="#515B6F"/>
<rect x="33" y="208" width="22" height="22" rx="3" stroke="#D6DDEB" stroke-width="2"/>
<path d="M80.168 212.4H76.76L77.072 211.624V223H75.712V211.624L76.096 212.4H72.624V211.2H80.168V212.4ZM81.1015 219.296V218.08H87.6695L87.4295 218.48C87.4295 218.448 87.4295 218.419 87.4295 218.392C87.4295 218.36 87.4295 218.331 87.4295 218.304C87.4295 217.813 87.3255 217.365 87.1175 216.96C86.9148 216.549 86.6108 216.221 86.2055 215.976C85.8002 215.731 85.2988 215.608 84.7015 215.608C84.0988 215.608 83.5682 215.736 83.1095 215.992C82.6508 216.248 82.2935 216.611 82.0375 217.08C81.7815 217.544 81.6535 218.099 81.6535 218.744C81.6535 219.4 81.7762 219.965 82.0215 220.44C82.2722 220.915 82.6268 221.28 83.0855 221.536C83.5442 221.792 84.0882 221.92 84.7175 221.92C85.1655 221.92 85.5548 221.875 85.8855 221.784C86.2162 221.688 86.4882 221.563 86.7015 221.408C86.9202 221.248 87.0855 221.075 87.1975 220.888C87.3095 220.701 87.3762 220.515 87.3975 220.328H88.7575C88.7308 220.669 88.6242 221.008 88.4375 221.344C88.2508 221.68 87.9868 221.987 87.6455 222.264C87.3042 222.536 86.8855 222.755 86.3895 222.92C85.8935 223.085 85.3228 223.168 84.6775 223.168C83.8242 223.168 83.0722 222.981 82.4215 222.608C81.7708 222.235 81.2588 221.717 80.8855 221.056C80.5175 220.395 80.3335 219.635 80.3335 218.776C80.3335 217.907 80.5202 217.144 80.8935 216.488C81.2668 215.827 81.7815 215.309 82.4375 214.936C83.0935 214.563 83.8428 214.376 84.6855 214.376C85.5442 214.376 86.2882 214.563 86.9175 214.936C87.5468 215.309 88.0322 215.821 88.3735 216.472C88.7148 217.117 88.8855 217.853 88.8855 218.68C88.8855 218.765 88.8828 218.877 88.8775 219.016C88.8722 219.155 88.8642 219.248 88.8535 219.296H81.1015ZM93.9733 223.16C93.3279 223.16 92.7626 223.059 92.2773 222.856C91.7973 222.653 91.4239 222.363 91.1573 221.984C90.8906 221.6 90.7573 221.141 90.7573 220.608C90.7573 220.053 90.9013 219.592 91.1893 219.224C91.4773 218.851 91.8826 218.56 92.4053 218.352C92.9279 218.144 93.5359 218.005 94.2293 217.936C95.2746 217.829 96.0186 217.725 96.4613 217.624C96.9039 217.517 97.1253 217.347 97.1253 217.112C97.1253 217.107 97.1253 217.104 97.1253 217.104C97.1253 217.099 97.1253 217.093 97.1253 217.088C97.1253 216.597 96.9253 216.232 96.5253 215.992C96.1253 215.747 95.5466 215.624 94.7893 215.624C93.9999 215.624 93.3866 215.763 92.9493 216.04C92.5119 216.312 92.2933 216.755 92.2933 217.368H90.9493C90.9493 216.733 91.1119 216.195 91.4373 215.752C91.7626 215.304 92.2133 214.963 92.7893 214.728C93.3706 214.493 94.0399 214.376 94.7973 214.376C95.4906 214.376 96.1146 214.483 96.6693 214.696C97.2293 214.904 97.6719 215.216 97.9973 215.632C98.3279 216.043 98.4933 216.552 98.4933 217.16C98.4933 217.272 98.4933 217.384 98.4933 217.496C98.4933 217.603 98.4933 217.712 98.4933 217.824V221.4C98.4933 221.587 98.5013 221.768 98.5173 221.944C98.5333 222.12 98.5599 222.275 98.5972 222.408C98.6453 222.568 98.6986 222.699 98.7573 222.8C98.8159 222.896 98.8639 222.963 98.9013 223H97.5333C97.5066 222.973 97.4666 222.912 97.4133 222.816C97.3599 222.715 97.3093 222.597 97.2613 222.464C97.2239 222.357 97.1946 222.224 97.1733 222.064C97.1519 221.899 97.1413 221.728 97.1413 221.552L97.3653 221.704C97.1999 221.992 96.9573 222.245 96.6373 222.464C96.3226 222.683 95.9413 222.853 95.4933 222.976C95.0453 223.099 94.5386 223.16 93.9733 223.16ZM94.1892 221.936C94.7386 221.936 95.2346 221.853 95.6773 221.688C96.1199 221.517 96.4719 221.267 96.7333 220.936C96.9946 220.605 97.1253 220.195 97.1253 219.704V218.016L97.4293 218.528C97.0879 218.661 96.6613 218.771 96.1493 218.856C95.6426 218.936 95.1119 219.003 94.5573 219.056C93.7519 219.131 93.1439 219.272 92.7333 219.48C92.3279 219.688 92.1253 220.037 92.1253 220.528C92.1253 220.992 92.2933 221.344 92.6293 221.584C92.9653 221.819 93.4853 221.936 94.1892 221.936ZM105.979 223V219.248C105.979 218.917 105.979 218.632 105.979 218.392C105.979 218.147 105.979 217.941 105.979 217.776C105.979 217.568 105.963 217.344 105.931 217.104C105.905 216.859 105.838 216.629 105.731 216.416C105.625 216.197 105.457 216.019 105.227 215.88C105.003 215.741 104.691 215.672 104.291 215.672C103.886 215.672 103.545 215.752 103.267 215.912C102.99 216.067 102.766 216.272 102.595 216.528C102.425 216.784 102.302 217.067 102.227 217.376C102.153 217.68 102.115 217.981 102.115 218.28L101.347 217.968C101.347 217.328 101.481 216.736 101.747 216.192C102.014 215.648 102.387 215.211 102.867 214.88C103.353 214.544 103.921 214.376 104.571 214.376C105.217 214.376 105.742 214.507 106.147 214.768C106.553 215.029 106.851 215.389 107.043 215.848C107.235 216.307 107.331 216.835 107.331 217.432C107.331 217.645 107.331 217.92 107.331 218.256C107.331 218.587 107.331 218.965 107.331 219.392V223H105.979ZM100.755 223V214.504H102.115V223H100.755ZM111.187 223V219.248C111.187 218.885 111.187 218.587 111.187 218.352C111.187 218.112 111.187 217.909 111.187 217.744C111.187 217.536 111.174 217.312 111.147 217.072C111.121 216.832 111.054 216.608 110.947 216.4C110.841 216.187 110.67 216.013 110.435 215.88C110.206 215.741 109.883 215.672 109.467 215.672C109.057 215.672 108.713 215.749 108.435 215.904C108.163 216.059 107.945 216.261 107.779 216.512C107.619 216.763 107.505 217.035 107.435 217.328C107.366 217.616 107.331 217.893 107.331 218.16L106.563 217.864C106.563 217.256 106.691 216.688 106.947 216.16C107.209 215.627 107.577 215.197 108.051 214.872C108.531 214.541 109.099 214.376 109.755 214.376C110.369 214.376 110.881 214.496 111.291 214.736C111.707 214.976 112.019 215.315 112.227 215.752C112.441 216.184 112.547 216.699 112.547 217.296C112.547 217.52 112.547 217.797 112.547 218.128C112.547 218.459 112.547 218.832 112.547 219.248V223H111.187ZM122.384 223.16C121.568 223.16 120.869 223.032 120.288 222.776C119.712 222.515 119.269 222.123 118.96 221.6C118.65 221.077 118.496 220.427 118.496 219.648C118.496 219.541 118.496 219.451 118.496 219.376C118.496 219.301 118.496 219.211 118.496 219.104H119.864C119.864 219.205 119.864 219.291 119.864 219.36C119.864 219.429 119.864 219.517 119.864 219.624C119.864 220.44 120.077 221.029 120.504 221.392C120.93 221.749 121.552 221.928 122.368 221.928C123.21 221.928 123.848 221.784 124.28 221.496C124.712 221.208 124.928 220.741 124.928 220.096C124.928 219.643 124.802 219.267 124.552 218.968C124.306 218.664 123.965 218.408 123.528 218.2C123.09 217.987 122.581 217.792 122 217.616C121.344 217.413 120.757 217.157 120.24 216.848C119.728 216.539 119.322 216.157 119.024 215.704C118.73 215.245 118.584 214.688 118.584 214.032C118.584 213.392 118.738 212.851 119.048 212.408C119.362 211.965 119.8 211.629 120.36 211.4C120.92 211.171 121.57 211.056 122.312 211.056C123.096 211.056 123.776 211.179 124.352 211.424C124.933 211.664 125.381 212.032 125.696 212.528C126.016 213.019 126.176 213.637 126.176 214.384C126.176 214.501 126.176 214.603 126.176 214.688C126.176 214.768 126.176 214.867 126.176 214.984H124.808C124.808 214.883 124.808 214.792 124.808 214.712C124.808 214.632 124.808 214.541 124.808 214.44C124.808 213.661 124.597 213.109 124.176 212.784C123.754 212.453 123.141 212.288 122.336 212.288C121.562 212.288 120.965 212.424 120.544 212.696C120.122 212.968 119.912 213.413 119.912 214.032C119.912 214.496 120.04 214.88 120.296 215.184C120.557 215.483 120.912 215.739 121.36 215.952C121.808 216.16 122.32 216.36 122.896 216.552C123.594 216.781 124.194 217.043 124.696 217.336C125.202 217.624 125.589 217.984 125.856 218.416C126.128 218.848 126.264 219.392 126.264 220.048C126.264 220.704 126.106 221.264 125.792 221.728C125.482 222.192 125.037 222.547 124.456 222.792C123.88 223.037 123.189 223.16 122.384 223.16ZM132.334 223.16C131.523 223.16 130.787 222.984 130.126 222.632C129.465 222.275 128.939 221.765 128.55 221.104C128.166 220.443 127.974 219.656 127.974 218.744C127.974 217.832 128.166 217.051 128.55 216.4C128.939 215.744 129.465 215.243 130.126 214.896C130.787 214.549 131.523 214.376 132.334 214.376C132.953 214.376 133.505 214.472 133.99 214.664C134.475 214.851 134.886 215.101 135.222 215.416C135.558 215.731 135.814 216.077 135.99 216.456C136.171 216.829 136.262 217.203 136.262 217.576C136.262 217.581 136.262 217.589 136.262 217.6C136.262 217.611 136.262 217.621 136.262 217.632H134.91C134.91 217.605 134.907 217.576 134.902 217.544C134.897 217.507 134.891 217.469 134.886 217.432C134.843 217.075 134.707 216.763 134.478 216.496C134.249 216.224 133.95 216.011 133.582 215.856C133.214 215.701 132.795 215.624 132.326 215.624C131.798 215.624 131.307 215.739 130.854 215.968C130.406 216.192 130.043 216.536 129.766 217C129.494 217.459 129.358 218.04 129.358 218.744C129.358 219.443 129.494 220.027 129.766 220.496C130.038 220.965 130.398 221.32 130.846 221.56C131.299 221.795 131.793 221.912 132.326 221.912C132.902 221.912 133.377 221.821 133.75 221.64C134.123 221.459 134.403 221.219 134.59 220.92C134.782 220.616 134.889 220.291 134.91 219.944H136.262C136.262 220.328 136.177 220.712 136.006 221.096C135.835 221.475 135.585 221.821 135.254 222.136C134.923 222.445 134.513 222.693 134.022 222.88C133.537 223.067 132.974 223.16 132.334 223.16ZM144.468 223V219.84C144.468 219.691 144.468 219.515 144.468 219.312C144.468 219.104 144.468 218.896 144.468 218.688C144.468 218.475 144.468 218.293 144.468 218.144C144.468 217.328 144.292 216.712 143.94 216.296C143.594 215.88 143.042 215.672 142.284 215.672C141.778 215.672 141.332 215.771 140.948 215.968C140.57 216.165 140.274 216.435 140.06 216.776C139.847 217.117 139.74 217.504 139.74 217.936L138.876 217.672C138.876 217.064 139.034 216.512 139.348 216.016C139.668 215.515 140.103 215.117 140.652 214.824C141.207 214.525 141.834 214.376 142.532 214.376C143.551 214.376 144.354 214.683 144.94 215.296C145.532 215.909 145.828 216.757 145.828 217.84C145.828 218.123 145.828 218.448 145.828 218.816C145.828 219.184 145.828 219.571 145.828 219.976V223H144.468ZM138.38 223V210.496H139.74V223H138.38ZM148.633 219.296V218.08H155.201L154.961 218.48C154.961 218.448 154.961 218.419 154.961 218.392C154.961 218.36 154.961 218.331 154.961 218.304C154.961 217.813 154.857 217.365 154.649 216.96C154.446 216.549 154.142 216.221 153.737 215.976C153.331 215.731 152.83 215.608 152.233 215.608C151.63 215.608 151.099 215.736 150.641 215.992C150.182 216.248 149.825 216.611 149.569 217.08C149.313 217.544 149.185 218.099 149.185 218.744C149.185 219.4 149.307 219.965 149.553 220.44C149.803 220.915 150.158 221.28 150.617 221.536C151.075 221.792 151.619 221.92 152.249 221.92C152.697 221.92 153.086 221.875 153.417 221.784C153.747 221.688 154.019 221.563 154.233 221.408C154.451 221.248 154.617 221.075 154.729 220.888C154.841 220.701 154.907 220.515 154.929 220.328H156.289C156.262 220.669 156.155 221.008 155.969 221.344C155.782 221.68 155.518 221.987 155.177 222.264C154.835 222.536 154.417 222.755 153.921 222.92C153.425 223.085 152.854 223.168 152.209 223.168C151.355 223.168 150.603 222.981 149.953 222.608C149.302 222.235 148.79 221.717 148.417 221.056C148.049 220.395 147.865 219.635 147.865 218.776C147.865 217.907 148.051 217.144 148.425 216.488C148.798 215.827 149.313 215.309 149.969 214.936C150.625 214.563 151.374 214.376 152.217 214.376C153.075 214.376 153.819 214.563 154.449 214.936C155.078 215.309 155.563 215.821 155.905 216.472C156.246 217.117 156.417 217.853 156.417 218.68C156.417 218.765 156.414 218.877 156.409 219.016C156.403 219.155 156.395 219.248 156.385 219.296H148.633ZM162.041 223.16C161.342 223.16 160.702 222.992 160.121 222.656C159.539 222.315 159.075 221.816 158.729 221.16C158.382 220.499 158.209 219.693 158.209 218.744C158.209 217.811 158.385 217.019 158.737 216.368C159.089 215.717 159.555 215.224 160.137 214.888C160.718 214.547 161.353 214.376 162.041 214.376C162.697 214.376 163.31 214.533 163.881 214.848C164.457 215.157 164.921 215.589 165.273 216.144C165.625 216.699 165.801 217.341 165.801 218.072C165.801 218.088 165.801 218.104 165.801 218.12C165.801 218.136 165.801 218.152 165.801 218.168L164.825 218.208C164.825 218.192 164.825 218.176 164.825 218.16C164.825 218.139 164.825 218.12 164.825 218.104C164.825 217.64 164.702 217.221 164.457 216.848C164.217 216.475 163.899 216.179 163.505 215.96C163.11 215.736 162.686 215.624 162.233 215.624C161.475 215.624 160.849 215.88 160.353 216.392C159.857 216.899 159.609 217.683 159.609 218.744C159.609 219.8 159.857 220.587 160.353 221.104C160.854 221.616 161.481 221.872 162.233 221.872C162.707 221.872 163.139 221.757 163.529 221.528C163.923 221.299 164.238 220.992 164.473 220.608C164.707 220.219 164.825 219.784 164.825 219.304L165.801 219.328C165.801 220.053 165.633 220.707 165.297 221.288C164.961 221.864 164.507 222.32 163.937 222.656C163.371 222.992 162.739 223.16 162.041 223.16ZM164.825 223V210.496H166.193V223H164.825ZM171.719 223.152C171.111 223.152 170.605 223.048 170.199 222.84C169.794 222.627 169.471 222.352 169.231 222.016C168.997 221.68 168.829 221.317 168.727 220.928C168.631 220.533 168.583 220.155 168.583 219.792C168.583 219.589 168.583 219.381 168.583 219.168C168.583 218.949 168.583 218.731 168.583 218.512V214.504H169.951V218.336C169.951 218.533 169.951 218.728 169.951 218.92C169.951 219.112 169.951 219.293 169.951 219.464C169.951 219.896 170.01 220.296 170.127 220.664C170.25 221.032 170.461 221.331 170.759 221.56C171.058 221.784 171.469 221.896 171.991 221.896C172.482 221.896 172.911 221.749 173.279 221.456C173.647 221.157 173.935 220.787 174.143 220.344C174.351 219.896 174.455 219.451 174.455 219.008L175.247 219.336C175.247 219.805 175.165 220.267 174.999 220.72C174.834 221.168 174.597 221.576 174.287 221.944C173.983 222.312 173.613 222.605 173.175 222.824C172.743 223.043 172.258 223.152 171.719 223.152ZM174.455 223V214.504H175.815V223H174.455ZM179.641 210.496V223H178.297V210.496H179.641ZM182.57 219.296V218.08H189.138L188.898 218.48C188.898 218.448 188.898 218.419 188.898 218.392C188.898 218.36 188.898 218.331 188.898 218.304C188.898 217.813 188.794 217.365 188.586 216.96C188.384 216.549 188.08 216.221 187.674 215.976C187.269 215.731 186.768 215.608 186.17 215.608C185.568 215.608 185.037 215.736 184.578 215.992C184.12 216.248 183.762 216.611 183.506 217.08C183.25 217.544 183.122 218.099 183.122 218.744C183.122 219.4 183.245 219.965 183.49 220.44C183.741 220.915 184.096 221.28 184.554 221.536C185.013 221.792 185.557 221.92 186.186 221.92C186.634 221.92 187.024 221.875 187.354 221.784C187.685 221.688 187.957 221.563 188.17 221.408C188.389 221.248 188.554 221.075 188.666 220.888C188.778 220.701 188.845 220.515 188.866 220.328H190.226C190.2 220.669 190.093 221.008 189.906 221.344C189.72 221.68 189.456 221.987 189.114 222.264C188.773 222.536 188.354 222.755 187.858 222.92C187.362 223.085 186.792 223.168 186.146 223.168C185.293 223.168 184.541 222.981 183.89 222.608C183.24 222.235 182.728 221.717 182.354 221.056C181.986 220.395 181.802 219.635 181.802 218.776C181.802 217.907 181.989 217.144 182.362 216.488C182.736 215.827 183.25 215.309 183.906 214.936C184.562 214.563 185.312 214.376 186.154 214.376C187.013 214.376 187.757 214.563 188.386 214.936C189.016 215.309 189.501 215.821 189.842 216.472C190.184 217.117 190.354 217.853 190.354 218.68C190.354 218.765 190.352 218.877 190.346 219.016C190.341 219.155 190.333 219.248 190.322 219.296H182.57Z" fill="#515B6F"/>
<rect x="33" y="266" width="22" height="22" rx="3" stroke="#D6DDEB" stroke-width="2"/>
<path d="M81.408 269.2H83.76V281H82.464V270.288L82.504 270.304L79.496 281H77.544L74.52 270.296L74.56 270.28V281H73.264V269.2H75.616L78.512 279.904H78.496L81.408 269.2ZM86.5113 284.584C86.2979 284.584 86.1033 284.571 85.9273 284.544C85.7513 284.523 85.6419 284.501 85.5993 284.48V283.296C85.6686 283.328 85.7833 283.355 85.9433 283.376C86.1033 283.397 86.2633 283.408 86.4233 283.408C86.7646 283.408 87.0526 283.336 87.2873 283.192C87.5219 283.053 87.7193 282.861 87.8793 282.616C88.0393 282.376 88.1699 282.104 88.2713 281.8L88.5273 281.048L85.5993 272.504H87.0233L89.3753 279.824H89.1833L91.4873 272.504H92.8873L89.7753 281.728C89.5993 282.245 89.3859 282.72 89.1353 283.152C88.8899 283.584 88.5593 283.931 88.1433 284.192C87.7326 284.453 87.1886 284.584 86.5113 284.584ZM105.527 270.4H102.119L102.431 269.624V281H101.071V269.624L101.455 270.4H97.9834V269.2H105.527V270.4ZM108.989 281.16C108.344 281.16 107.778 281.059 107.293 280.856C106.813 280.653 106.44 280.363 106.173 279.984C105.906 279.6 105.773 279.141 105.773 278.608C105.773 278.053 105.917 277.592 106.205 277.224C106.493 276.851 106.898 276.56 107.421 276.352C107.944 276.144 108.552 276.005 109.245 275.936C110.29 275.829 111.034 275.725 111.477 275.624C111.92 275.517 112.141 275.347 112.141 275.112C112.141 275.107 112.141 275.104 112.141 275.104C112.141 275.099 112.141 275.093 112.141 275.088C112.141 274.597 111.941 274.232 111.541 273.992C111.141 273.747 110.562 273.624 109.805 273.624C109.016 273.624 108.402 273.763 107.965 274.04C107.528 274.312 107.309 274.755 107.309 275.368H105.965C105.965 274.733 106.128 274.195 106.453 273.752C106.778 273.304 107.229 272.963 107.805 272.728C108.386 272.493 109.056 272.376 109.813 272.376C110.506 272.376 111.13 272.483 111.685 272.696C112.245 272.904 112.688 273.216 113.013 273.632C113.344 274.043 113.509 274.552 113.509 275.16C113.509 275.272 113.509 275.384 113.509 275.496C113.509 275.603 113.509 275.712 113.509 275.824V279.4C113.509 279.587 113.517 279.768 113.533 279.944C113.549 280.12 113.576 280.275 113.613 280.408C113.661 280.568 113.714 280.699 113.773 280.8C113.832 280.896 113.88 280.963 113.917 281H112.549C112.522 280.973 112.482 280.912 112.429 280.816C112.376 280.715 112.325 280.597 112.277 280.464C112.24 280.357 112.21 280.224 112.189 280.064C112.168 279.899 112.157 279.728 112.157 279.552L112.381 279.704C112.216 279.992 111.973 280.245 111.653 280.464C111.338 280.683 110.957 280.853 110.509 280.976C110.061 281.099 109.554 281.16 108.989 281.16ZM109.205 279.936C109.754 279.936 110.25 279.853 110.693 279.688C111.136 279.517 111.488 279.267 111.749 278.936C112.01 278.605 112.141 278.195 112.141 277.704V276.016L112.445 276.528C112.104 276.661 111.677 276.771 111.165 276.856C110.658 276.936 110.128 277.003 109.573 277.056C108.768 277.131 108.16 277.272 107.749 277.48C107.344 277.688 107.141 278.037 107.141 278.528C107.141 278.992 107.309 279.344 107.645 279.584C107.981 279.819 108.501 279.936 109.205 279.936ZM119.019 281.16C118.507 281.16 118.032 281.107 117.595 281C117.163 280.888 116.784 280.728 116.459 280.52C116.139 280.307 115.888 280.045 115.707 279.736C115.531 279.427 115.443 279.072 115.443 278.672C115.443 278.629 115.443 278.587 115.443 278.544C115.443 278.496 115.443 278.456 115.443 278.424H116.811C116.811 278.456 116.811 278.483 116.811 278.504C116.811 278.525 116.811 278.557 116.811 278.6C116.811 279.032 117.011 279.363 117.411 279.592C117.811 279.816 118.358 279.928 119.051 279.928C119.478 279.928 119.859 279.885 120.195 279.8C120.531 279.715 120.795 279.584 120.987 279.408C121.184 279.232 121.283 279.011 121.283 278.744C121.283 278.301 121.075 277.987 120.659 277.8C120.248 277.608 119.632 277.443 118.811 277.304C118.379 277.229 117.968 277.133 117.579 277.016C117.19 276.893 116.843 276.736 116.539 276.544C116.24 276.352 116.003 276.115 115.827 275.832C115.656 275.544 115.571 275.2 115.571 274.8C115.571 274.283 115.723 273.845 116.027 273.488C116.336 273.125 116.752 272.851 117.275 272.664C117.798 272.472 118.379 272.376 119.019 272.376C119.638 272.376 120.208 272.475 120.731 272.672C121.254 272.869 121.672 273.157 121.987 273.536C122.307 273.909 122.467 274.371 122.467 274.92C122.467 274.941 122.467 274.968 122.467 275C122.467 275.027 122.467 275.053 122.467 275.08H121.107C121.107 275.053 121.107 275.032 121.107 275.016C121.107 275 121.107 274.981 121.107 274.96C121.107 274.651 121.008 274.397 120.811 274.2C120.614 273.997 120.358 273.848 120.043 273.752C119.728 273.651 119.392 273.6 119.035 273.6C118.699 273.6 118.368 273.637 118.043 273.712C117.718 273.781 117.448 273.899 117.235 274.064C117.022 274.229 116.915 274.456 116.915 274.744C116.915 275.032 117.014 275.264 117.211 275.44C117.414 275.611 117.696 275.752 118.059 275.864C118.427 275.971 118.859 276.069 119.355 276.16C119.798 276.24 120.216 276.341 120.611 276.464C121.006 276.581 121.352 276.733 121.651 276.92C121.955 277.107 122.192 277.344 122.363 277.632C122.539 277.915 122.627 278.261 122.627 278.672C122.627 279.088 122.531 279.451 122.339 279.76C122.152 280.069 121.891 280.328 121.555 280.536C121.224 280.744 120.84 280.899 120.403 281C119.971 281.107 119.51 281.16 119.019 281.16ZM124.74 281V268.496H126.036V276.16L125.644 275.984L129.708 272.504H131.468L127.396 276.088L127.756 275.392L131.5 281H130.036L126.876 276.144L127.156 276.304L125.836 277.448L126.036 276.8V281H124.74Z" fill="#515B6F"/>
<rect x="33" y="324" width="22" height="22" rx="3" stroke="#D6DDEB" stroke-width="2"/>
<path d="M73.128 339V327.2H77.224C78.3067 327.2 79.1307 327.456 79.696 327.968C80.2613 328.48 80.544 329.261 80.544 330.312C80.544 330.941 80.424 331.477 80.184 331.92C79.9493 332.357 79.664 332.696 79.328 332.936C78.9973 333.176 78.6907 333.312 78.408 333.344C78.696 333.365 78.9787 333.445 79.256 333.584C79.5387 333.717 79.7733 333.925 79.96 334.208C80.1467 334.491 80.24 334.869 80.24 335.344C80.24 335.781 80.24 336.229 80.24 336.688C80.24 337.141 80.24 337.589 80.24 338.032C80.24 338.261 80.2587 338.467 80.296 338.648C80.3333 338.824 80.376 338.941 80.424 339H79.048C79.0107 338.931 78.9733 338.811 78.936 338.64C78.8987 338.469 78.88 338.267 78.88 338.032C78.88 337.621 78.88 337.203 78.88 336.776C78.88 336.349 78.88 335.928 78.88 335.512C78.88 334.989 78.7147 334.6 78.384 334.344C78.0533 334.088 77.5867 333.96 76.984 333.96H74.08L74.464 333.44V339H73.128ZM74.464 333.328L74.08 332.76H77C77.3947 332.76 77.752 332.664 78.072 332.472C78.3973 332.275 78.656 332.003 78.848 331.656C79.0453 331.304 79.144 330.893 79.144 330.424C79.144 329.693 78.952 329.173 78.568 328.864C78.184 328.555 77.6293 328.4 76.904 328.4H74.048L74.464 327.808V333.328ZM83.1796 335.296V334.08H89.7476L89.5076 334.48C89.5076 334.448 89.5076 334.419 89.5076 334.392C89.5076 334.36 89.5076 334.331 89.5076 334.304C89.5076 333.813 89.4036 333.365 89.1956 332.96C88.993 332.549 88.689 332.221 88.2836 331.976C87.8783 331.731 87.377 331.608 86.7796 331.608C86.177 331.608 85.6463 331.736 85.1876 331.992C84.729 332.248 84.3716 332.611 84.1156 333.08C83.8596 333.544 83.7316 334.099 83.7316 334.744C83.7316 335.4 83.8543 335.965 84.0996 336.44C84.3503 336.915 84.705 337.28 85.1636 337.536C85.6223 337.792 86.1663 337.92 86.7956 337.92C87.2436 337.92 87.633 337.875 87.9636 337.784C88.2943 337.688 88.5663 337.563 88.7796 337.408C88.9983 337.248 89.1636 337.075 89.2756 336.888C89.3876 336.701 89.4543 336.515 89.4756 336.328H90.8356C90.809 336.669 90.7023 337.008 90.5156 337.344C90.329 337.68 90.065 337.987 89.7236 338.264C89.3823 338.536 88.9636 338.755 88.4676 338.92C87.9716 339.085 87.401 339.168 86.7556 339.168C85.9023 339.168 85.1503 338.981 84.4996 338.608C83.849 338.235 83.337 337.717 82.9636 337.056C82.5956 336.395 82.4116 335.635 82.4116 334.776C82.4116 333.907 82.5983 333.144 82.9716 332.488C83.345 331.827 83.8596 331.309 84.5156 330.936C85.1716 330.563 85.921 330.376 86.7636 330.376C87.6223 330.376 88.3663 330.563 88.9956 330.936C89.625 331.309 90.1103 331.821 90.4516 332.472C90.793 333.117 90.9636 333.853 90.9636 334.68C90.9636 334.765 90.961 334.877 90.9556 335.016C90.9503 335.155 90.9423 335.248 90.9316 335.296H83.1796ZM98.3074 339V335.248C98.3074 334.917 98.3074 334.632 98.3074 334.392C98.3074 334.147 98.3074 333.941 98.3074 333.776C98.3074 333.568 98.2914 333.344 98.2594 333.104C98.2327 332.859 98.166 332.629 98.0594 332.416C97.9527 332.197 97.7847 332.019 97.5554 331.88C97.3314 331.741 97.0194 331.672 96.6194 331.672C96.214 331.672 95.8727 331.752 95.5954 331.912C95.318 332.067 95.094 332.272 94.9234 332.528C94.7527 332.784 94.63 333.067 94.5554 333.376C94.4807 333.68 94.4434 333.981 94.4434 334.28L93.6754 333.968C93.6754 333.328 93.8087 332.736 94.0754 332.192C94.342 331.648 94.7154 331.211 95.1954 330.88C95.6807 330.544 96.2487 330.376 96.8994 330.376C97.5447 330.376 98.07 330.507 98.4754 330.768C98.8807 331.029 99.1794 331.389 99.3714 331.848C99.5634 332.307 99.6594 332.835 99.6594 333.432C99.6594 333.645 99.6594 333.92 99.6594 334.256C99.6594 334.587 99.6594 334.965 99.6594 335.392V339H98.3074ZM93.0834 339V330.504H94.4434V339H93.0834ZM103.515 339V335.248C103.515 334.885 103.515 334.587 103.515 334.352C103.515 334.112 103.515 333.909 103.515 333.744C103.515 333.536 103.502 333.312 103.475 333.072C103.449 332.832 103.382 332.608 103.275 332.4C103.169 332.187 102.998 332.013 102.763 331.88C102.534 331.741 102.211 331.672 101.795 331.672C101.385 331.672 101.041 331.749 100.763 331.904C100.491 332.059 100.273 332.261 100.107 332.512C99.9474 332.763 99.8327 333.035 99.7634 333.328C99.694 333.616 99.6594 333.893 99.6594 334.16L98.8914 333.864C98.8914 333.256 99.0194 332.688 99.2754 332.16C99.5367 331.627 99.9047 331.197 100.379 330.872C100.859 330.541 101.427 330.376 102.083 330.376C102.697 330.376 103.209 330.496 103.619 330.736C104.035 330.976 104.347 331.315 104.555 331.752C104.769 332.184 104.875 332.699 104.875 333.296C104.875 333.52 104.875 333.797 104.875 334.128C104.875 334.459 104.875 334.832 104.875 335.248V339H103.515ZM107.32 339V330.504H108.664V339H107.32ZM108 328.552C107.749 328.552 107.53 328.483 107.344 328.344C107.162 328.2 107.072 328.005 107.072 327.76C107.072 327.52 107.162 327.331 107.344 327.192C107.53 327.048 107.749 326.976 108 326.976C108.25 326.976 108.466 327.048 108.648 327.192C108.829 327.331 108.92 327.52 108.92 327.76C108.92 328.005 108.829 328.2 108.648 328.344C108.466 328.483 108.25 328.552 108 328.552ZM117.273 339V334.928C117.273 334.683 117.273 334.483 117.273 334.328C117.273 334.168 117.273 334.016 117.273 333.872C117.273 333.429 117.198 333.043 117.049 332.712C116.899 332.381 116.665 332.125 116.345 331.944C116.025 331.763 115.606 331.672 115.089 331.672C114.635 331.672 114.214 331.789 113.825 332.024C113.441 332.253 113.131 332.565 112.897 332.96C112.667 333.349 112.553 333.787 112.553 334.272L111.777 333.976C111.777 333.309 111.939 332.704 112.265 332.16C112.595 331.616 113.033 331.184 113.577 330.864C114.126 330.539 114.723 330.376 115.369 330.376C116.025 330.376 116.598 330.501 117.089 330.752C117.579 331.003 117.958 331.363 118.225 331.832C118.497 332.296 118.633 332.856 118.633 333.512C118.633 333.747 118.633 334.003 118.633 334.28C118.633 334.557 118.633 334.816 118.633 335.056V339H117.273ZM111.193 339V330.504H112.553V339H111.193ZM124.509 339.16C123.811 339.16 123.171 338.992 122.589 338.656C122.008 338.315 121.544 337.816 121.197 337.16C120.851 336.499 120.677 335.693 120.677 334.744C120.677 333.811 120.853 333.019 121.205 332.368C121.557 331.717 122.024 331.224 122.605 330.888C123.187 330.547 123.821 330.376 124.509 330.376C125.165 330.376 125.779 330.533 126.349 330.848C126.925 331.157 127.389 331.589 127.741 332.144C128.093 332.699 128.269 333.341 128.269 334.072C128.269 334.088 128.269 334.104 128.269 334.12C128.269 334.136 128.269 334.152 128.269 334.168L127.293 334.208C127.293 334.192 127.293 334.176 127.293 334.16C127.293 334.139 127.293 334.12 127.293 334.104C127.293 333.64 127.171 333.221 126.925 332.848C126.685 332.475 126.368 332.179 125.973 331.96C125.579 331.736 125.155 331.624 124.701 331.624C123.944 331.624 123.317 331.88 122.821 332.392C122.325 332.899 122.077 333.683 122.077 334.744C122.077 335.8 122.325 336.587 122.821 337.104C123.323 337.616 123.949 337.872 124.701 337.872C125.176 337.872 125.608 337.757 125.997 337.528C126.392 337.299 126.707 336.992 126.941 336.608C127.176 336.219 127.293 335.784 127.293 335.304L128.269 335.328C128.269 336.053 128.101 336.707 127.765 337.288C127.429 337.864 126.976 338.32 126.405 338.656C125.84 338.992 125.208 339.16 124.509 339.16ZM127.293 339V326.496H128.661V339H127.293ZM131.492 335.296V334.08H138.06L137.82 334.48C137.82 334.448 137.82 334.419 137.82 334.392C137.82 334.36 137.82 334.331 137.82 334.304C137.82 333.813 137.716 333.365 137.508 332.96C137.305 332.549 137.001 332.221 136.596 331.976C136.191 331.731 135.689 331.608 135.092 331.608C134.489 331.608 133.959 331.736 133.5 331.992C133.041 332.248 132.684 332.611 132.428 333.08C132.172 333.544 132.044 334.099 132.044 334.744C132.044 335.4 132.167 335.965 132.412 336.44C132.663 336.915 133.017 337.28 133.476 337.536C133.935 337.792 134.479 337.92 135.108 337.92C135.556 337.92 135.945 337.875 136.276 337.784C136.607 337.688 136.879 337.563 137.092 337.408C137.311 337.248 137.476 337.075 137.588 336.888C137.7 336.701 137.767 336.515 137.788 336.328H139.148C139.121 336.669 139.015 337.008 138.828 337.344C138.641 337.68 138.377 337.987 138.036 338.264C137.695 338.536 137.276 338.755 136.78 338.92C136.284 339.085 135.713 339.168 135.068 339.168C134.215 339.168 133.463 338.981 132.812 338.608C132.161 338.235 131.649 337.717 131.276 337.056C130.908 336.395 130.724 335.635 130.724 334.776C130.724 333.907 130.911 333.144 131.284 332.488C131.657 331.827 132.172 331.309 132.828 330.936C133.484 330.563 134.233 330.376 135.076 330.376C135.935 330.376 136.679 330.563 137.308 330.936C137.937 331.309 138.423 331.821 138.764 332.472C139.105 333.117 139.276 333.853 139.276 334.68C139.276 334.765 139.273 334.877 139.268 335.016C139.263 335.155 139.255 335.248 139.244 335.296H131.492ZM141.396 339V330.504H142.756V333.112L142.308 332.952C142.34 332.637 142.42 332.328 142.548 332.024C142.676 331.715 142.852 331.437 143.076 331.192C143.305 330.941 143.591 330.744 143.932 330.6C144.273 330.451 144.673 330.376 145.132 330.376C145.473 330.376 145.751 330.405 145.964 330.464C146.183 330.517 146.319 330.56 146.372 330.592L146.02 331.928C145.967 331.891 145.857 331.843 145.692 331.784C145.532 331.725 145.303 331.696 145.004 331.696C144.561 331.696 144.193 331.776 143.9 331.936C143.612 332.096 143.383 332.309 143.212 332.576C143.047 332.837 142.929 333.123 142.86 333.432C142.791 333.741 142.756 334.048 142.756 334.352V339H141.396ZM150.925 339.16C150.413 339.16 149.938 339.107 149.501 339C149.069 338.888 148.69 338.728 148.365 338.52C148.045 338.307 147.794 338.045 147.613 337.736C147.437 337.427 147.349 337.072 147.349 336.672C147.349 336.629 147.349 336.587 147.349 336.544C147.349 336.496 147.349 336.456 147.349 336.424H148.717C148.717 336.456 148.717 336.483 148.717 336.504C148.717 336.525 148.717 336.557 148.717 336.6C148.717 337.032 148.917 337.363 149.317 337.592C149.717 337.816 150.264 337.928 150.957 337.928C151.384 337.928 151.765 337.885 152.101 337.8C152.437 337.715 152.701 337.584 152.893 337.408C153.09 337.232 153.189 337.011 153.189 336.744C153.189 336.301 152.981 335.987 152.565 335.8C152.154 335.608 151.538 335.443 150.717 335.304C150.285 335.229 149.874 335.133 149.485 335.016C149.096 334.893 148.749 334.736 148.445 334.544C148.146 334.352 147.909 334.115 147.733 333.832C147.562 333.544 147.477 333.2 147.477 332.8C147.477 332.283 147.629 331.845 147.933 331.488C148.242 331.125 148.658 330.851 149.181 330.664C149.704 330.472 150.285 330.376 150.925 330.376C151.544 330.376 152.114 330.475 152.637 330.672C153.16 330.869 153.578 331.157 153.893 331.536C154.213 331.909 154.373 332.371 154.373 332.92C154.373 332.941 154.373 332.968 154.373 333C154.373 333.027 154.373 333.053 154.373 333.08H153.013C153.013 333.053 153.013 333.032 153.013 333.016C153.013 333 153.013 332.981 153.013 332.96C153.013 332.651 152.914 332.397 152.717 332.2C152.52 331.997 152.264 331.848 151.949 331.752C151.634 331.651 151.298 331.6 150.941 331.6C150.605 331.6 150.274 331.637 149.949 331.712C149.624 331.781 149.354 331.899 149.141 332.064C148.928 332.229 148.821 332.456 148.821 332.744C148.821 333.032 148.92 333.264 149.117 333.44C149.32 333.611 149.602 333.752 149.965 333.864C150.333 333.971 150.765 334.069 151.261 334.16C151.704 334.24 152.122 334.341 152.517 334.464C152.912 334.581 153.258 334.733 153.557 334.92C153.861 335.107 154.098 335.344 154.269 335.632C154.445 335.915 154.533 336.261 154.533 336.672C154.533 337.088 154.437 337.451 154.245 337.76C154.058 338.069 153.797 338.328 153.461 338.536C153.13 338.744 152.746 338.899 152.309 339C151.877 339.107 151.416 339.16 150.925 339.16Z" fill="#515B6F"/>
<defs>
<clipPath id="clip0_152_27021">
<rect width="16" height="16" fill="white" transform="translate(36 95)"/>
</clipPath>
<clipPath id="clip1_152_27021">
<rect width="16" height="16" fill="white" transform="translate(36 153)"/>
</clipPath>
</defs>
</svg>
