<svg width="36" height="36" viewBox="0 0 36 36" fill="none" xmlns="http://www.w3.org/2000/svg">
<rect width="36" height="36" rx="18" fill="#EFEFEF"/>
<path d="M13.5886 12.4108C13.2632 12.0854 12.7355 12.0854 12.4101 12.4108C12.0847 12.7363 12.0847 13.2639 12.4101 13.5893L16.8208 18.0001L12.4101 22.4108C12.0847 22.7363 12.0847 23.2639 12.4101 23.5893C12.7356 23.9148 13.2632 23.9148 13.5886 23.5893L17.9994 19.1786L22.4101 23.5893C22.7355 23.9148 23.2632 23.9148 23.5886 23.5893C23.914 23.2639 23.914 22.7363 23.5886 22.4108L19.1779 18.0001L23.5886 13.5893C23.9141 13.2639 23.9141 12.7363 23.5886 12.4108C23.2632 12.0854 22.7356 12.0854 22.4101 12.4108L17.9994 16.8216L13.5886 12.4108Z" fill="#33383F"/>
</svg>
