<svg width="35" height="34" viewBox="0 0 35 34" fill="none" xmlns="http://www.w3.org/2000/svg">
<path fill-rule="evenodd" clip-rule="evenodd" d="M0 17C0 7.64729 7.76282 0 17.2568 0C26.7508 0 34.5137 7.64729 34.5137 17C34.5137 26.3527 26.7508 34 17.2568 34C7.76282 34 0 26.3527 0 17ZM17.2568 2.37209C9.09268 2.37209 2.40793 8.95736 2.40793 17C2.40793 25.0426 9.09268 31.6279 17.2568 31.6279C25.421 31.6279 32.1057 25.0426 32.1057 17C32.1057 8.95736 25.421 2.37209 17.2568 2.37209Z" fill="#003087"/>
<path fill-rule="evenodd" clip-rule="evenodd" d="M22.6529 11.6863C23.1231 12.1494 23.1231 12.9004 22.6529 13.3636L13.567 22.3143C13.0968 22.7775 12.3345 22.7775 11.8644 22.3143C11.3942 21.8511 11.3942 21.1001 11.8644 20.6369L20.9503 11.6863C21.4205 11.2231 22.1828 11.2231 22.6529 11.6863Z" fill="#003087"/>
<path fill-rule="evenodd" clip-rule="evenodd" d="M11.8644 11.6863C12.3345 11.2231 13.0968 11.2231 13.567 11.6863L22.6529 20.6369C23.1231 21.1001 23.1231 21.8511 22.6529 22.3143C22.1828 22.7775 21.4205 22.7775 20.9503 22.3143L11.8644 13.3636C11.3942 12.9004 11.3942 12.1494 11.8644 11.6863Z" fill="#003087"/>
</svg>
