<svg width="51" height="56" viewBox="0 0 51 56" fill="none" xmlns="http://www.w3.org/2000/svg">
<path fill-rule="evenodd" clip-rule="evenodd" d="M6.43115 10.0852C11.7472 9.54828 17.0635 9.27979 22.3801 9.27979C31.324 9.27979 40.2935 9.73501 49.2086 10.6185C49.8131 10.6784 50.2546 11.217 50.1947 11.8216C50.1348 12.4261 49.5962 12.8677 48.9916 12.8078C40.1467 11.9312 31.2495 11.4798 22.3801 11.4798C17.1372 11.4798 11.8941 11.7446 6.65063 12.2742L6.64741 12.2745L1.20741 12.8079C0.602794 12.8671 0.0646042 12.4251 0.00532835 11.8204C-0.0539476 11.2158 0.388137 10.6776 0.992751 10.6184L6.42953 10.0854C6.43007 10.0853 6.43061 10.0852 6.43115 10.0852Z" fill="#E93936"/>
<path fill-rule="evenodd" clip-rule="evenodd" d="M17.4395 5.70936L16.853 9.20218C16.7523 9.8013 16.1851 10.2054 15.586 10.1048C14.9868 10.0042 14.5827 9.43694 14.6833 8.83782L15.27 5.34449C15.2777 5.29874 15.2855 5.25207 15.2933 5.20553C15.4862 4.05279 15.7184 2.66547 16.6264 1.63578C17.6352 0.491838 19.2391 0 21.6081 0H28.5948C30.9804 0 32.5861 0.526252 33.5923 1.68572C34.5054 2.73803 34.7326 4.13716 34.9162 5.26817C34.9219 5.30339 34.9276 5.33834 34.9333 5.37302C34.9334 5.37412 34.9336 5.37522 34.9338 5.37632L35.5194 8.83646C35.6208 9.43545 35.2173 10.0032 34.6184 10.1046C34.0194 10.2059 33.4516 9.80254 33.3502 9.20354L32.7625 5.73035C32.5498 4.42592 32.3882 3.65483 31.9307 3.12761C31.5368 2.67375 30.7159 2.2 28.5948 2.2H21.6081C19.4705 2.2 18.661 2.65483 18.2765 3.09089C17.8279 3.59956 17.6677 4.35491 17.4395 5.70936Z" fill="#E93936"/>
<path fill-rule="evenodd" clip-rule="evenodd" d="M6.76356 19.0419C7.36981 19.0027 7.893 19.4625 7.93213 20.0687L9.66506 46.916C9.66513 46.917 9.6652 46.918 9.66527 46.9191C9.73967 47.9809 9.80621 48.8941 9.96943 49.7045C10.1305 50.5044 10.3722 51.1252 10.7468 51.6129C11.4564 52.5368 12.9319 53.3329 16.5411 53.3329H33.6611C37.2703 53.3329 38.7458 52.5368 39.4554 51.6129C39.83 51.1252 40.0716 50.5044 40.2327 49.7045C40.396 48.894 40.4625 47.9808 40.5369 46.9188C40.537 46.9179 40.537 46.917 40.5371 46.916L42.27 20.0687C42.3092 19.4625 42.8324 19.0027 43.4386 19.0419C44.0449 19.081 44.5046 19.6042 44.4655 20.2104L42.7321 47.0638L42.7317 47.0698L42.7301 47.0925C42.6585 48.1156 42.5846 49.1697 42.3894 50.1388C42.1905 51.1265 41.8522 52.104 41.2001 52.953C39.8564 54.7024 37.4919 55.5329 33.6611 55.5329H16.5411C12.7103 55.5329 10.3458 54.7024 9.00204 52.953C8.34996 52.104 8.01164 51.1265 7.81273 50.1388C7.61755 49.1697 7.5437 48.1156 7.47203 47.0925L7.47044 47.0698L7.47003 47.0638L5.7367 20.2104C5.69757 19.6042 6.15731 19.081 6.76356 19.0419Z" fill="#E93936"/>
<path fill-rule="evenodd" clip-rule="evenodd" d="M19.5469 39.7665C19.5469 39.159 20.0394 38.6665 20.6469 38.6665H29.5269C30.1344 38.6665 30.6269 39.159 30.6269 39.7665C30.6269 40.374 30.1344 40.8665 29.5269 40.8665H20.6469C20.0394 40.8665 19.5469 40.374 19.5469 39.7665Z" fill="#E93936"/>
<path fill-rule="evenodd" clip-rule="evenodd" d="M17.3359 29.1C17.3359 28.4925 17.8284 28 18.4359 28H31.7693C32.3768 28 32.8693 28.4925 32.8693 29.1C32.8693 29.7075 32.3768 30.2 31.7693 30.2H18.4359C17.8284 30.2 17.3359 29.7075 17.3359 29.1Z" fill="#E93936"/>
</svg>
