<svg width="37" height="28" viewBox="0 0 37 28" fill="none" xmlns="http://www.w3.org/2000/svg">
<rect x="0.520833" y="0.520833" width="35.1783" height="26.8483" rx="5.03472" fill="white"/>
<rect x="0.520833" y="0.520833" width="35.1783" height="26.8483" rx="5.03472" stroke="#0A69BB" stroke-width="1.04167"/>
<path d="M22.0833 13.9991C21.7607 13.9991 21.5 14.2605 21.5 14.5824V19.2497C21.5 19.5711 21.2386 19.8331 20.9167 19.8331H12.75C12.428 19.8331 12.1667 19.5711 12.1667 19.2497V11.082C12.1667 10.7606 12.428 10.4986 12.75 10.4986H17.4167C17.7393 10.4986 18 10.2372 18 9.91526C18 9.5932 17.7393 9.33179 17.4167 9.33179H12.75C11.7852 9.33179 11 10.1171 11 11.082V19.2497C11 20.2147 11.7852 20.9999 12.75 20.9999H20.9167C21.8815 20.9999 22.6667 20.2147 22.6667 19.2497V14.5824C22.6667 14.2598 22.4058 13.9991 22.0833 13.9991Z" fill="#0A69BB"/>
<path d="M16.4706 13.4689C16.4301 13.5096 16.4023 13.5613 16.3907 13.6176L15.9783 15.6806C15.9591 15.7762 15.9894 15.8748 16.0582 15.9443C16.0854 15.9713 16.1176 15.9928 16.153 16.0074C16.1885 16.022 16.2265 16.0295 16.2648 16.0294C16.2834 16.0294 16.3027 16.0277 16.3219 16.0237L18.384 15.6112C18.4412 15.5994 18.4931 15.5721 18.5334 15.5312L23.1487 10.9153L21.0866 8.85303L16.4706 13.4689ZM24.5743 7.42663C24.0056 6.85779 23.0804 6.85779 22.5122 7.42663L21.7049 8.234L23.767 10.2964L24.5743 9.48888C24.8497 9.21412 25.0013 8.8477 25.0013 8.458C25.0013 8.06831 24.8497 7.70191 24.5743 7.42663Z" fill="#0A69BB"/>
</svg>
