<svg width="20" height="20" viewBox="0 0 20 20" fill="none" xmlns="http://www.w3.org/2000/svg">
<path d="M9.82322 17.6769L10 17.8537L10.1768 17.6769L14.5518 13.3019L14.7286 13.1251L14.5518 12.9484L13.6705 12.0671L13.4939 11.8905L13.3171 12.067L10 15.3782L6.68287 12.067L6.50609 11.8905L6.32947 12.0671L5.44822 12.9484L5.27145 13.1251L5.44822 13.3019L9.82322 17.6769Z" fill="#7C8493" stroke="#7C8493" stroke-width="0.5"/>
<path d="M10.1768 2.32322L10 2.14645L9.82322 2.32322L5.44822 6.69822L5.27145 6.875L5.44822 7.05178L6.32947 7.93303L6.50609 8.10964L6.68287 7.93318L10 4.62199L13.3171 7.93318L13.4939 8.10964L13.6705 7.93303L14.5518 7.05178L14.7286 6.875L14.5518 6.69822L10.1768 2.32322Z" fill="#7C8493" stroke="#7C8493" stroke-width="0.5"/>
</svg>
