<svg width="40" height="40" viewBox="0 0 40 40" fill="none" xmlns="http://www.w3.org/2000/svg">
<circle cx="20" cy="20" r="20" fill="white"/>
<path fill-rule="evenodd" clip-rule="evenodd" d="M18.4844 28.237C19.0024 28.8149 19.6674 29.1324 20.3574 29.1324H20.3584C21.0514 29.1324 21.7194 28.8149 22.2384 28.236C22.5164 27.9285 22.9904 27.9034 23.2974 28.1809C23.6054 28.4583 23.6304 28.9341 23.3534 29.2416C22.5454 30.1401 21.4824 30.6349 20.3584 30.6349H20.3564C19.2354 30.6339 18.1744 30.1391 17.3694 29.2406C17.0924 28.9331 17.1174 28.4573 17.4254 28.1809C17.7334 27.9024 18.2074 27.9275 18.4844 28.237ZM20.4072 9.09961C24.8522 9.09961 27.8382 12.5673 27.8382 15.8056C27.8382 17.4713 28.2612 18.1775 28.7102 18.9267C29.1542 19.6659 29.6572 20.5053 29.6572 22.0919C29.3082 26.1455 25.0832 26.4761 20.4072 26.4761C15.7312 26.4761 11.5052 26.1455 11.1602 22.156C11.1572 20.5053 11.6602 19.6659 12.1042 18.9267L12.2609 18.6624C12.6469 17.9981 12.9762 17.2754 12.9762 15.8056C12.9762 12.5673 15.9622 9.09961 20.4072 9.09961ZM20.4072 10.6021C16.9122 10.6021 14.4762 13.3446 14.4762 15.8056C14.4762 17.888 13.8992 18.8506 13.3892 19.7C12.9802 20.3821 12.6572 20.921 12.6572 22.0919C12.8242 23.981 14.0692 24.9736 20.4072 24.9736C26.7102 24.9736 27.9942 23.9369 28.1602 22.0268C28.1572 20.921 27.8342 20.3821 27.4252 19.7C26.9152 18.8506 26.3382 17.888 26.3382 15.8056C26.3382 13.3446 23.9022 10.6021 20.4072 10.6021Z" fill="#25324B"/>
<path d="M26 17.5821C27.9338 17.5821 29.5 16.0121 29.5 14.0772C29.5 12.1422 27.9338 10.5723 26 10.5723C24.0662 10.5723 22.5 12.1422 22.5 14.0772C22.5 16.0121 24.0662 17.5821 26 17.5821Z" fill="#FF6550" stroke="white"/>
</svg>
