<svg width="117" height="27" viewBox="0 0 117 27" fill="none" xmlns="http://www.w3.org/2000/svg">
<path fill-rule="evenodd" clip-rule="evenodd" d="M34.4851 8.68532C32.9435 9.7348 31.9339 11.5031 31.9339 13.5046C31.9339 16.7218 34.542 19.3299 37.7593 19.3299C39.7607 19.3299 41.529 18.3203 42.5785 16.7787C38.3266 16.3139 34.95 12.9373 34.4851 8.68532ZM43.5846 15.169C44.3053 15.169 44.9259 15.8042 44.6407 16.466C43.4929 19.1296 40.8438 20.9943 37.7593 20.9943C33.6228 20.9943 30.2695 17.6411 30.2695 13.5046C30.2695 10.42 32.1342 7.77095 34.7978 6.62313C35.4597 6.33791 36.0949 6.95854 36.0949 7.67926C36.0949 11.8157 39.4481 15.169 43.5846 15.169Z" fill="#6F767E"/>
<path d="M58.3742 18.6572H55.2978V9.57877H58.4362C59.3376 9.57877 60.1118 9.76052 60.759 10.124C61.4092 10.4845 61.9086 11.0032 62.2573 11.6799C62.6061 12.3567 62.7804 13.1664 62.7804 14.1091C62.7804 15.0548 62.6046 15.8675 62.2529 16.5472C61.9042 17.2269 61.4003 17.7485 60.7413 18.112C60.0852 18.4755 59.2962 18.6572 58.3742 18.6572ZM56.9424 17.2343H58.2944C58.9268 17.2343 59.4543 17.119 59.8769 16.8885C60.2995 16.6551 60.6172 16.3078 60.83 15.8468C61.0427 15.3828 61.1491 14.8036 61.1491 14.1091C61.1491 13.4147 61.0427 12.8384 60.83 12.3803C60.6172 11.9193 60.3025 11.575 59.8858 11.3475C59.472 11.117 58.9578 11.0017 58.3431 11.0017H56.9424V17.2343ZM66.1065 18.7946C65.6751 18.7946 65.2865 18.7178 64.9407 18.5641C64.5979 18.4075 64.326 18.177 64.1251 17.8726C63.9271 17.5682 63.8281 17.1929 63.8281 16.7467C63.8281 16.3625 63.899 16.0448 64.0408 15.7936C64.1827 15.5424 64.3763 15.3415 64.6215 15.1907C64.8668 15.04 65.1431 14.9263 65.4505 14.8494C65.7608 14.7696 66.0814 14.712 66.4124 14.6765C66.8114 14.6352 67.135 14.5982 67.3832 14.5657C67.6314 14.5303 67.8117 14.4771 67.924 14.4061C68.0393 14.3323 68.0969 14.2185 68.0969 14.0648V14.0382C68.0969 13.7043 67.9979 13.4457 67.7999 13.2625C67.6019 13.0792 67.3167 12.9876 66.9444 12.9876C66.5513 12.9876 66.2395 13.0733 66.009 13.2447C65.7815 13.4161 65.6278 13.6186 65.548 13.852L64.0497 13.6393C64.1679 13.2255 64.363 12.8798 64.6348 12.602C64.9067 12.3212 65.2392 12.1114 65.6322 11.9725C66.0253 11.8307 66.4597 11.7597 66.9355 11.7597C67.2635 11.7597 67.5901 11.7981 67.9151 11.875C68.2402 11.9518 68.5372 12.0789 68.8061 12.2562C69.0751 12.4306 69.2908 12.6685 69.4533 12.9699C69.6188 13.2713 69.7016 13.6481 69.7016 14.1003V18.6572H68.159V17.7219H68.1058C68.0082 17.911 67.8708 18.0883 67.6935 18.2538C67.5191 18.4164 67.299 18.5479 67.033 18.6484C66.77 18.7459 66.4612 18.7946 66.1065 18.7946ZM66.5232 17.6155C66.8454 17.6155 67.1246 17.552 67.361 17.4249C67.5975 17.2949 67.7792 17.1235 67.9063 16.9107C68.0363 16.6979 68.1013 16.4659 68.1013 16.2147V15.4124C68.0511 15.4538 67.9654 15.4922 67.8442 15.5276C67.726 15.5631 67.593 15.5941 67.4453 15.6207C67.2975 15.6473 67.1512 15.671 67.0064 15.6917C66.8616 15.7123 66.736 15.7301 66.6296 15.7449C66.3903 15.7774 66.176 15.8306 65.9869 15.9044C65.7977 15.9783 65.6485 16.0817 65.5391 16.2147C65.4298 16.3448 65.3751 16.5132 65.3751 16.7201C65.3751 17.0156 65.483 17.2387 65.6987 17.3894C65.9145 17.5402 66.1893 17.6155 66.5232 17.6155ZM71.1903 18.6572V11.8484H72.7462V12.9832H72.8172C72.9413 12.5901 73.1541 12.2872 73.4555 12.0745C73.7599 11.8587 74.1071 11.7509 74.4972 11.7509C74.5859 11.7509 74.6849 11.7553 74.7942 11.7642C74.9065 11.7701 74.9996 11.7804 75.0735 11.7952V13.2713C75.0055 13.2477 74.8976 13.227 74.7499 13.2093C74.6051 13.1886 74.4647 13.1782 74.3288 13.1782C74.0362 13.1782 73.7732 13.2418 73.5397 13.3688C73.3092 13.493 73.1275 13.6658 72.9945 13.8875C72.8615 14.1091 72.795 14.3648 72.795 14.6544V18.6572H71.1903ZM77.4776 16.5206L77.4731 14.5834H77.7303L80.1772 11.8484H82.0523L79.0424 15.1996H78.7099L77.4776 16.5206ZM76.0147 18.6572V9.57877H77.6194V18.6572H76.0147ZM80.288 18.6572L78.0716 15.5587L79.1532 14.4283L82.2074 18.6572H80.288Z" fill="#6F767E"/>
</svg>
