<svg width="124" height="34" viewBox="0 0 124 34" fill="none" xmlns="http://www.w3.org/2000/svg">
<g filter="url(#filter0_dii_16248_10977)">
<rect x="3.32812" y="0.328613" width="116.507" height="26.6575" rx="13.3288" fill="#FCFCFC"/>
<path fill-rule="evenodd" clip-rule="evenodd" d="M39.4228 18.6504C42.1805 18.6504 44.416 16.4149 44.416 13.6572C44.416 10.8996 42.1805 8.66406 39.4228 8.66406C36.6652 8.66406 34.4297 10.8996 34.4297 13.6572C34.4297 16.4149 36.6652 18.6504 39.4228 18.6504Z" fill="#1A1D1F"/>
<path fill-rule="evenodd" clip-rule="evenodd" d="M39.4203 4.91895C39.8799 4.91895 40.2525 5.29153 40.2525 5.75114V6.58333C40.2525 7.04294 39.8799 7.41552 39.4203 7.41552C38.9607 7.41552 38.5881 7.04294 38.5881 6.58333V5.75114C38.5881 5.29153 38.9607 4.91895 39.4203 4.91895Z" fill="#1A1D1F"/>
<path fill-rule="evenodd" clip-rule="evenodd" d="M39.4203 19.8984C39.8799 19.8984 40.2525 20.271 40.2525 20.7306V21.5601C40.2525 22.0197 39.8799 22.3923 39.4203 22.3923C38.9607 22.3923 38.5881 22.0197 38.5881 21.5601V20.7306C38.5881 20.271 38.9607 19.8984 39.4203 19.8984Z" fill="#1A1D1F"/>
<path fill-rule="evenodd" clip-rule="evenodd" d="M30.6836 13.6556C30.6836 13.196 31.0562 12.8234 31.5158 12.8234H32.348C32.8076 12.8234 33.1802 13.196 33.1802 13.6556C33.1802 14.1152 32.8076 14.4878 32.348 14.4878H31.5158C31.0562 14.4878 30.6836 14.1152 30.6836 13.6556Z" fill="#1A1D1F"/>
<path fill-rule="evenodd" clip-rule="evenodd" d="M45.663 13.6556C45.663 13.196 46.0356 12.8234 46.4952 12.8234H47.3247C47.7844 12.8234 48.1569 13.196 48.1569 13.6556C48.1569 14.1152 47.7844 14.4878 47.3247 14.4878H46.4952C46.0356 14.4878 45.663 14.1152 45.663 13.6556Z" fill="#1A1D1F"/>
<path fill-rule="evenodd" clip-rule="evenodd" d="M33.2426 19.8334C32.9176 19.5084 32.9176 18.9815 33.2426 18.6565L33.831 18.068C34.156 17.743 34.6829 17.743 35.0079 18.068C35.3329 18.393 35.3329 18.9199 35.0079 19.2449L34.4195 19.8334C34.0945 20.1584 33.5676 20.1584 33.2426 19.8334Z" fill="#1A1D1F"/>
<path fill-rule="evenodd" clip-rule="evenodd" d="M43.8347 9.2413C43.5097 8.91631 43.5097 8.3894 43.8347 8.0644L44.4212 7.47785C44.7462 7.15286 45.2731 7.15286 45.5981 7.47785C45.9231 7.80284 45.9231 8.32976 45.5981 8.65475L45.0116 9.2413C44.6866 9.56629 44.1596 9.56629 43.8347 9.2413Z" fill="#1A1D1F"/>
<path fill-rule="evenodd" clip-rule="evenodd" d="M33.2426 7.47785C33.5676 7.15286 34.0945 7.15286 34.4195 7.47785L35.0079 8.0663C35.3329 8.39129 35.3329 8.91821 35.0079 9.2432C34.6829 9.56819 34.156 9.56819 33.831 9.2432L33.2426 8.65475C32.9176 8.32976 32.9176 7.80284 33.2426 7.47785Z" fill="#1A1D1F"/>
<path fill-rule="evenodd" clip-rule="evenodd" d="M43.8347 18.0699C44.1596 17.7449 44.6866 17.7449 45.0116 18.0699L45.5981 18.6565C45.9231 18.9815 45.9231 19.5084 45.5981 19.8334C45.2731 20.1584 44.7462 20.1584 44.4212 19.8334L43.8347 19.2468C43.5097 18.9218 43.5097 18.3949 43.8347 18.0699Z" fill="#1A1D1F"/>
<path d="M56.9618 18.6572V9.57877H58.6064V17.2786H62.6048V18.6572H56.9618ZM63.8365 18.6572V11.8484H65.4412V18.6572H63.8365ZM64.6432 10.882C64.3891 10.882 64.1704 10.7978 63.9872 10.6294C63.804 10.458 63.7123 10.2526 63.7123 10.0132C63.7123 9.77086 63.804 9.56547 63.9872 9.39702C64.1704 9.22562 64.3891 9.13992 64.6432 9.13992C64.9003 9.13992 65.119 9.22562 65.2993 9.39702C65.4825 9.56547 65.5741 9.77086 65.5741 10.0132C65.5741 10.2526 65.4825 10.458 65.2993 10.6294C65.119 10.7978 64.9003 10.882 64.6432 10.882ZM69.9276 21.3524C69.3513 21.3524 68.8563 21.2741 68.4426 21.1175C68.0289 20.9638 67.6964 20.7569 67.4452 20.4969C67.194 20.2368 67.0196 19.9487 66.9221 19.6325L68.3672 19.2823C68.4322 19.4152 68.5268 19.5467 68.6509 19.6768C68.775 19.8098 68.942 19.9191 69.1518 20.0048C69.3646 20.0935 69.6321 20.1378 69.9542 20.1378C70.4093 20.1378 70.7861 20.027 71.0846 19.8053C71.383 19.5866 71.5323 19.2261 71.5323 18.7237V17.4338H71.4525C71.3697 17.5993 71.2486 17.7692 71.089 17.9435C70.9324 18.1179 70.724 18.2642 70.464 18.3824C70.2069 18.5006 69.8833 18.5597 69.4932 18.5597C68.9701 18.5597 68.4958 18.4371 68.0702 18.1918C67.6476 17.9435 67.3107 17.5741 67.0595 17.0836C66.8113 16.59 66.6872 15.9724 66.6872 15.2306C66.6872 14.483 66.8113 13.852 67.0595 13.3378C67.3107 12.8207 67.6491 12.4291 68.0747 12.1631C68.5002 11.8942 68.9745 11.7597 69.4976 11.7597C69.8966 11.7597 70.2246 11.8277 70.4817 11.9636C70.7418 12.0966 70.9486 12.2577 71.1023 12.4468C71.256 12.633 71.3727 12.8088 71.4525 12.9743H71.5411V11.8484H73.1237V18.768C73.1237 19.3502 72.9848 19.8319 72.707 20.2132C72.4292 20.5944 72.0494 20.8796 71.5677 21.0687C71.086 21.2578 70.5393 21.3524 69.9276 21.3524ZM69.9409 17.3008C70.2807 17.3008 70.5703 17.218 70.8097 17.0525C71.0491 16.887 71.2308 16.6492 71.355 16.3389C71.4791 16.0286 71.5411 15.6562 71.5411 15.2218C71.5411 14.7933 71.4791 14.418 71.355 14.0958C71.2338 13.7737 71.0535 13.524 70.8142 13.3467C70.5777 13.1664 70.2866 13.0763 69.9409 13.0763C69.5833 13.0763 69.2848 13.1694 69.0455 13.3555C68.8061 13.5417 68.6258 13.7974 68.5046 14.1224C68.3835 14.4446 68.3229 14.811 68.3229 15.2218C68.3229 15.6385 68.3835 16.0034 68.5046 16.3167C68.6288 16.627 68.8105 16.8693 69.0499 17.0437C69.2922 17.2151 69.5892 17.3008 69.9409 17.3008ZM76.2481 14.6677V18.6572H74.6434V9.57877H76.2126V13.0054H76.2924C76.452 12.6212 76.6988 12.3183 77.0327 12.0966C77.3696 11.872 77.7981 11.7597 78.3182 11.7597C78.7911 11.7597 79.2033 11.8587 79.555 12.0567C79.9067 12.2547 80.1786 12.5443 80.3706 12.9256C80.5657 13.3068 80.6632 13.7722 80.6632 14.3219V18.6572H79.0585V14.5701C79.0585 14.1121 78.9403 13.756 78.7039 13.5018C78.4704 13.2447 78.1424 13.1162 77.7198 13.1162C77.4361 13.1162 77.182 13.1782 76.9574 13.3024C76.7357 13.4235 76.5614 13.5994 76.4343 13.8299C76.3102 14.0604 76.2481 14.3396 76.2481 14.6677ZM85.5741 11.8484V13.0896H81.6599V11.8484H85.5741ZM82.6263 10.2171H84.2309V16.6093C84.2309 16.825 84.2634 16.9905 84.3285 17.1057C84.3964 17.218 84.4851 17.2949 84.5944 17.3362C84.7038 17.3776 84.8249 17.3983 84.9579 17.3983C85.0584 17.3983 85.15 17.3909 85.2328 17.3761C85.3185 17.3614 85.3835 17.3481 85.4278 17.3362L85.6982 18.5907C85.6125 18.6203 85.4899 18.6528 85.3303 18.6883C85.1737 18.7237 84.9816 18.7444 84.754 18.7503C84.3521 18.7621 83.9901 18.7016 83.668 18.5686C83.3458 18.4326 83.0902 18.2228 82.9011 17.9391C82.7149 17.6554 82.6233 17.3008 82.6263 16.8752V10.2171Z" fill="#1A1D1F"/>
</g>
<defs>
<filter id="filter0_dii_16248_10977" x="-0.000642061" y="-0.503578" width="123.165" height="34.1474" filterUnits="userSpaceOnUse" color-interpolation-filters="sRGB">
<feFlood flood-opacity="0" result="BackgroundImageFix"/>
<feColorMatrix in="SourceAlpha" type="matrix" values="0 0 0 0 0 0 0 0 0 0 0 0 0 0 0 0 0 0 127 0" result="hardAlpha"/>
<feMorphology radius="3.32877" operator="erode" in="SourceAlpha" result="effect1_dropShadow_16248_10977"/>
<feOffset dy="3.32877"/>
<feGaussianBlur stdDeviation="3.32877"/>
<feColorMatrix type="matrix" values="0 0 0 0 0 0 0 0 0 0 0 0 0 0 0 0 0 0 0.25 0"/>
<feBlend mode="multiply" in2="BackgroundImageFix" result="effect1_dropShadow_16248_10977"/>
<feBlend mode="normal" in="SourceGraphic" in2="effect1_dropShadow_16248_10977" result="shape"/>
<feColorMatrix in="SourceAlpha" type="matrix" values="0 0 0 0 0 0 0 0 0 0 0 0 0 0 0 0 0 0 127 0" result="hardAlpha"/>
<feOffset dy="1.66438"/>
<feComposite in2="hardAlpha" operator="arithmetic" k2="-1" k3="1"/>
<feColorMatrix type="matrix" values="0 0 0 0 1 0 0 0 0 1 0 0 0 0 1 0 0 0 0.25 0"/>
<feBlend mode="normal" in2="shape" result="effect2_innerShadow_16248_10977"/>
<feColorMatrix in="SourceAlpha" type="matrix" values="0 0 0 0 0 0 0 0 0 0 0 0 0 0 0 0 0 0 127 0" result="hardAlpha"/>
<feOffset dy="-0.832192"/>
<feGaussianBlur stdDeviation="0.416096"/>
<feComposite in2="hardAlpha" operator="arithmetic" k2="-1" k3="1"/>
<feColorMatrix type="matrix" values="0 0 0 0 0 0 0 0 0 0 0 0 0 0 0 0 0 0 0.04 0"/>
<feBlend mode="multiply" in2="effect2_innerShadow_16248_10977" result="effect3_innerShadow_16248_10977"/>
</filter>
</defs>
</svg>
