<svg width="21" height="21" viewBox="0 0 21 21" fill="none" xmlns="http://www.w3.org/2000/svg">
<g id="UI icon/moon/light">
<path id="Subtract (Stroke)" fill-rule="evenodd" clip-rule="evenodd" d="M7.48514 5.68532C5.94351 6.7348 4.93391 8.50311 4.93391 10.5046C4.93391 13.7218 7.54201 16.3299 10.7593 16.3299C12.7607 16.3299 14.529 15.3203 15.5785 13.7787C11.3266 13.3139 7.94995 9.93726 7.48514 5.68532ZM16.5846 12.169C17.3053 12.169 17.9259 12.8042 17.6407 13.466C16.4929 16.1296 13.8438 17.9943 10.7593 17.9943C6.6228 17.9943 3.26953 14.6411 3.26953 10.5046C3.26953 7.42001 5.1342 4.77095 7.79782 3.62313C8.4597 3.33791 9.09487 3.95854 9.09487 4.67926C9.09487 8.81572 12.4481 12.169 16.5846 12.169Z" fill="#6F767E"/>
</g>
</svg>
