<svg width="40" height="40" viewBox="0 0 40 40" fill="none" xmlns="http://www.w3.org/2000/svg">
<circle cx="20" cy="20" r="20" fill="white"/>
<path fill-rule="evenodd" clip-rule="evenodd" d="M18.4844 28.2365C19.0024 28.8144 19.6674 29.132 20.3574 29.132H20.3584C21.0514 29.132 21.7194 28.8144 22.2384 28.2355C22.5164 27.928 22.9904 27.9029 23.2974 28.1804C23.6054 28.4579 23.6304 28.9336 23.3534 29.2411C22.5454 30.1396 21.4824 30.6344 20.3584 30.6344H20.3564C19.2354 30.6334 18.1744 30.1386 17.3694 29.2401C17.0924 28.9326 17.1174 28.4569 17.4254 28.1804C17.7334 27.9019 18.2074 27.927 18.4844 28.2365ZM20.4072 9.09912C24.8522 9.09912 27.8382 12.5668 27.8382 15.8051C27.8382 17.4708 28.2612 18.177 28.7102 18.9262C29.1542 19.6654 29.6572 20.5048 29.6572 22.0914C29.3082 26.1451 25.0832 26.4756 20.4072 26.4756C15.7312 26.4756 11.5052 26.1451 11.1602 22.1555C11.1572 20.5048 11.6602 19.6654 12.1042 18.9262L12.2609 18.662C12.6469 17.9976 12.9762 17.2749 12.9762 15.8051C12.9762 12.5668 15.9622 9.09912 20.4072 9.09912ZM20.4072 10.6016C16.9122 10.6016 14.4762 13.3441 14.4762 15.8051C14.4762 17.8875 13.8992 18.8501 13.3892 19.6995C12.9802 20.3816 12.6572 20.9205 12.6572 22.0914C12.8242 23.9805 14.0692 24.9731 20.4072 24.9731C26.7102 24.9731 27.9942 23.9364 28.1602 22.0263C28.1572 20.9205 27.8342 20.3816 27.4252 19.6995C26.9152 18.8501 26.3382 17.8875 26.3382 15.8051C26.3382 13.3441 23.9022 10.6016 20.4072 10.6016Z" fill="#25324B"/>
<path d="M26 17.5807C27.9338 17.5807 29.5 16.0107 29.5 14.0757C29.5 12.1408 27.9338 10.5708 26 10.5708C24.0662 10.5708 22.5 12.1408 22.5 14.0757C22.5 16.0107 24.0662 17.5807 26 17.5807Z" fill="#FF6550" stroke="white"/>
</svg>
