<svg width="19" height="22" viewBox="0 0 19 22" fill="none" xmlns="http://www.w3.org/2000/svg">
<g id="Iconly/Light-Outline/Notification">
<g id="Notification">
<path id="Combined-Shape" fill-rule="evenodd" clip-rule="evenodd" d="M7.48438 19.2365C8.00238 19.8144 8.66738 20.132 9.35738 20.132H9.35838C10.0514 20.132 10.7194 19.8144 11.2384 19.2355C11.5164 18.928 11.9904 18.9029 12.2974 19.1804C12.6054 19.4579 12.6304 19.9336 12.3534 20.2411C11.5454 21.1396 10.4824 21.6344 9.35838 21.6344H9.35638C8.23538 21.6334 7.17438 21.1386 6.36938 20.2401C6.09238 19.9326 6.11738 19.4569 6.42538 19.1804C6.73338 18.9019 7.20738 18.927 7.48438 19.2365ZM9.40718 0.0991211C13.8522 0.0991211 16.8382 3.56681 16.8382 6.80511C16.8382 8.47084 17.2612 9.177 17.7102 9.92623C18.1542 10.6654 18.6572 11.5048 18.6572 13.0914C18.3082 17.1451 14.0832 17.4756 9.40718 17.4756C4.73118 17.4756 0.505183 17.1451 0.160169 13.1555C0.157183 11.5048 0.660183 10.6654 1.10418 9.92623L1.26093 9.66195C1.64686 8.99757 1.97618 8.27488 1.97618 6.80511C1.97618 3.56681 4.96218 0.0991211 9.40718 0.0991211ZM9.40718 1.60158C5.91218 1.60158 3.47618 4.34408 3.47618 6.80511C3.47618 8.88753 2.89918 9.85011 2.38918 10.6995C1.98018 11.3816 1.65718 11.9205 1.65718 13.0914C1.82418 14.9805 3.06918 15.9731 9.40718 15.9731C15.7102 15.9731 16.9942 14.9364 17.1602 13.0263C17.1572 11.9205 16.8342 11.3816 16.4252 10.6995C15.9152 9.85011 15.3382 8.88753 15.3382 6.80511C15.3382 4.34408 12.9022 1.60158 9.40718 1.60158Z" fill="#25324B"/>
</g>
</g>
</svg>
