<svg width="21" height="21" viewBox="0 0 21 21" fill="none" xmlns="http://www.w3.org/2000/svg">
<g id="UI icon/sun/filled">
<path id="Oval" fill-rule="evenodd" clip-rule="evenodd" d="M10.4228 15.6504C13.1805 15.6504 15.416 13.4149 15.416 10.6572C15.416 7.89957 13.1805 5.66406 10.4228 5.66406C7.6652 5.66406 5.42969 7.89957 5.42969 10.6572C5.42969 13.4149 7.6652 15.6504 10.4228 15.6504Z" fill="#1A1D1F"/>
<g id="Vector">
<path fill-rule="evenodd" clip-rule="evenodd" d="M10.4203 1.91895C10.8799 1.91895 11.2525 2.29153 11.2525 2.75114V3.58333C11.2525 4.04294 10.8799 4.41552 10.4203 4.41552C9.96066 4.41552 9.58807 4.04294 9.58807 3.58333V2.75114C9.58807 2.29153 9.96066 1.91895 10.4203 1.91895Z" fill="#1A1D1F"/>
<path fill-rule="evenodd" clip-rule="evenodd" d="M10.4203 16.8984C10.8799 16.8984 11.2525 17.271 11.2525 17.7306V18.5601C11.2525 19.0197 10.8799 19.3923 10.4203 19.3923C9.96066 19.3923 9.58807 19.0197 9.58807 18.5601V17.7306C9.58807 17.271 9.96066 16.8984 10.4203 16.8984Z" fill="#1A1D1F"/>
<path fill-rule="evenodd" clip-rule="evenodd" d="M1.68359 10.6556C1.68359 10.196 2.05618 9.82343 2.51579 9.82343H3.34798C3.80758 9.82343 4.18017 10.196 4.18017 10.6556C4.18017 11.1152 3.80758 11.4878 3.34798 11.4878H2.51579C2.05618 11.4878 1.68359 11.1152 1.68359 10.6556Z" fill="#1A1D1F"/>
<path fill-rule="evenodd" clip-rule="evenodd" d="M16.663 10.6556C16.663 10.196 17.0356 9.82343 17.4952 9.82343H18.3247C18.7844 9.82343 19.1569 10.196 19.1569 10.6556C19.1569 11.1152 18.7844 11.4878 18.3247 11.4878H17.4952C17.0356 11.4878 16.663 11.1152 16.663 10.6556Z" fill="#1A1D1F"/>
<path fill-rule="evenodd" clip-rule="evenodd" d="M4.24259 16.8334C3.9176 16.5084 3.9176 15.9815 4.24259 15.6565L4.83104 15.068C5.15603 14.743 5.68294 14.743 6.00793 15.068C6.33292 15.393 6.33292 15.9199 6.00793 16.2449L5.41948 16.8334C5.09449 17.1584 4.56758 17.1584 4.24259 16.8334Z" fill="#1A1D1F"/>
<path fill-rule="evenodd" clip-rule="evenodd" d="M14.8347 6.2413C14.5097 5.91631 14.5097 5.3894 14.8347 5.0644L15.4212 4.47785C15.7462 4.15286 16.2731 4.15286 16.5981 4.47785C16.9231 4.80284 16.9231 5.32976 16.5981 5.65475L16.0116 6.2413C15.6866 6.56629 15.1596 6.56629 14.8347 6.2413Z" fill="#1A1D1F"/>
<path fill-rule="evenodd" clip-rule="evenodd" d="M4.24259 4.47785C4.56758 4.15286 5.09449 4.15286 5.41948 4.47785L6.00793 5.0663C6.33292 5.39129 6.33292 5.91821 6.00793 6.2432C5.68294 6.56819 5.15603 6.56819 4.83103 6.2432L4.24259 5.65475C3.9176 5.32976 3.9176 4.80284 4.24259 4.47785Z" fill="#1A1D1F"/>
<path fill-rule="evenodd" clip-rule="evenodd" d="M14.8347 15.0699C15.1596 14.7449 15.6866 14.7449 16.0116 15.0699L16.5981 15.6565C16.9231 15.9815 16.9231 16.5084 16.5981 16.8334C16.2731 17.1584 15.7462 17.1584 15.4212 16.8334L14.8347 16.2468C14.5097 15.9218 14.5097 15.3949 14.8347 15.0699Z" fill="#1A1D1F"/>
</g>
</g>
</svg>
