<svg width="35" height="35" viewBox="0 0 35 35" fill="none" xmlns="http://www.w3.org/2000/svg">
<circle cx="17.0085" cy="17.0085" r="17.0085" fill="#0A69BB"/>
<path d="M14.2024 14.2747C14.2024 12.6321 16.5822 11.3003 19.5176 11.3003C22.453 11.3003 24.8327 12.6321 24.8327 14.2747C24.8327 15.9173 22.453 17.249 19.5176 17.249C16.5822 17.249 14.2024 15.9173 14.2024 14.2747ZM19.5176 20.2234C22.453 20.2234 24.8327 18.8916 24.8327 17.249V15.7619C24.8327 17.4044 22.453 18.7362 19.5176 18.7362C16.5822 18.7362 14.2024 17.4044 14.2024 15.7619V17.249C14.2024 18.8916 16.5822 20.2234 19.5176 20.2234ZM12.0763 20.2234C9.72776 20.2234 7.82422 22.2207 7.82422 24.685C7.82422 27.1492 9.72776 29.1465 12.0763 29.1465C14.4249 29.1465 16.3285 27.1492 16.3285 24.685C16.3285 22.2207 14.4249 20.2234 12.0763 20.2234ZM12.785 24.685V26.9157H11.3677V24.685H9.62854L11.5328 22.6869C11.8283 22.3769 12.3074 22.3769 12.6029 22.6869L14.5079 24.685H12.785ZM19.5176 27.6973C18.6657 27.6973 17.8607 27.585 17.147 27.3857C16.9358 27.8266 16.675 28.2371 16.3703 28.6074C17.2512 28.9703 18.3397 29.1852 19.5176 29.1852C22.453 29.1852 24.8327 27.8534 24.8327 26.2108V24.7236C24.8327 26.3662 22.453 27.6973 19.5176 27.6973ZM19.5176 21.7485C18.4886 21.7485 17.5283 21.5849 16.7147 21.3016C17.062 21.8184 17.332 22.3954 17.5084 23.0156C18.1285 23.1576 18.8068 23.2357 19.5176 23.2357C22.453 23.2357 24.8327 21.9039 24.8327 20.2613V18.7741C24.8327 20.4167 22.453 21.7485 19.5176 21.7485ZM19.5176 24.7229C18.8954 24.7229 18.2986 24.6627 17.7437 24.5526C17.7451 24.6091 17.7459 24.6656 17.7459 24.7229C17.7459 25.1661 17.6991 25.5974 17.6119 26.013C18.2037 26.1402 18.8457 26.2101 19.5176 26.2101C22.453 26.2101 24.8327 24.8783 24.8327 23.2357V21.7485C24.8327 23.3911 22.453 24.7229 19.5176 24.7229Z" fill="white"/>
</svg>
