<svg width="182" height="35" viewBox="0 0 182 35" fill="none" xmlns="http://www.w3.org/2000/svg">
<path d="M50.5197 27.2056C49.3404 27.2056 48.3063 26.9425 47.4173 26.4164C46.5284 25.8902 45.8389 25.1918 45.3491 24.3209C44.8593 23.4501 44.6143 22.4885 44.6143 21.4363V8.15602H49.1862V21.7628C49.1862 22.1983 49.3404 22.5792 49.6489 22.9058C49.9573 23.2324 50.3383 23.3957 50.7918 23.3957H55.8263V27.2056H50.5197ZM65.2259 27.2056C63.6475 27.2056 62.2596 26.9153 61.0622 26.3347C59.8648 25.736 58.9305 24.9196 58.2592 23.8855C57.6061 22.8332 57.2795 21.6177 57.2795 20.2389C57.2795 18.7149 57.597 17.4087 58.232 16.3201C58.867 15.2316 59.7106 14.397 60.7629 13.8165C61.8333 13.2178 63.0125 12.9184 64.3006 12.9184C65.7702 12.9184 66.9948 13.2268 67.9745 13.8437C68.9723 14.4605 69.7252 15.3041 70.2332 16.3745C70.7412 17.4268 70.9952 18.6333 70.9952 19.994C70.9952 20.2298 70.977 20.511 70.9408 20.8376C70.9226 21.146 70.8954 21.3909 70.8591 21.5723H61.7153C61.8242 22.044 62.0328 22.4432 62.3412 22.7697C62.6497 23.0963 63.0397 23.3412 63.5114 23.5045C63.9831 23.6497 64.5093 23.7222 65.0898 23.7222H69.3624V27.2056H65.2259ZM61.6065 18.9326H66.9131C66.8769 18.6423 66.8224 18.3611 66.7499 18.089C66.6773 17.8169 66.5594 17.581 66.3961 17.3814C66.2509 17.1637 66.0786 16.9823 65.879 16.8372C65.6795 16.6739 65.4436 16.5469 65.1715 16.4562C64.9175 16.3655 64.6272 16.3201 64.3006 16.3201C63.8834 16.3201 63.5114 16.3927 63.1849 16.5378C62.8583 16.683 62.5862 16.8825 62.3685 17.1365C62.1508 17.3724 61.9784 17.6536 61.8514 17.9801C61.7425 18.2886 61.6609 18.6061 61.6065 18.9326ZM73.4529 27.2056V19.1775C73.4529 18.0164 73.7341 16.9642 74.2965 16.0208C74.859 15.0774 75.6572 14.3244 76.6913 13.762C77.7436 13.1996 78.9864 12.9184 80.4196 12.9184C81.871 12.9184 83.1047 13.1996 84.1207 13.762C85.1548 14.3244 85.944 15.0774 86.4883 16.0208C87.0325 16.9642 87.3047 18.0164 87.3047 19.1775V27.2056H83.0865V19.2864C83.0865 18.7966 82.9686 18.3521 82.7328 17.9529C82.4969 17.5357 82.1704 17.2091 81.7531 16.9732C81.3539 16.7192 80.9004 16.5922 80.3924 16.5922C79.8663 16.5922 79.3946 16.7192 78.9773 16.9732C78.5782 17.2091 78.2607 17.5357 78.0248 17.9529C77.789 18.3521 77.671 18.7966 77.671 19.2864V27.2056H73.4529ZM97.2921 27.5321C96.1309 27.5321 95.0787 27.3507 94.1353 26.9879C93.21 26.625 92.4299 26.1079 91.7949 25.4367C91.1599 24.7473 90.6701 23.9399 90.3254 23.0147C89.9807 22.0894 89.8083 21.0825 89.8083 19.994C89.8083 18.5788 90.0895 17.3452 90.6519 16.2929C91.2325 15.2406 92.0217 14.4152 93.0195 13.8165C94.0355 13.2178 95.1966 12.9184 96.5029 12.9184C97.0653 12.9184 97.5914 12.991 98.0813 13.1361C98.5892 13.2813 99.0428 13.499 99.4419 13.7892C99.8592 14.0614 100.204 14.3879 100.476 14.7689H100.558V7.33961H104.776V19.9667C104.776 21.4907 104.467 22.8242 103.851 23.9671C103.234 25.1101 102.363 25.99 101.238 26.6069C100.131 27.2237 98.816 27.5321 97.2921 27.5321ZM97.2921 23.8855C97.9452 23.8855 98.5076 23.7313 98.9793 23.4229C99.4692 23.0963 99.8411 22.6609 100.095 22.1166C100.349 21.5542 100.476 20.9283 100.476 20.2389C100.476 19.5495 100.349 18.9326 100.095 18.3883C99.8411 17.8441 99.4692 17.4177 98.9793 17.1093C98.5076 16.7827 97.9452 16.6195 97.2921 16.6195C96.6571 16.6195 96.0947 16.7827 95.6048 17.1093C95.115 17.4177 94.7431 17.8441 94.4891 18.3883C94.2351 18.9326 94.1081 19.5495 94.1081 20.2389C94.1081 20.9283 94.2351 21.5542 94.4891 22.1166C94.7431 22.6609 95.115 23.0963 95.6048 23.4229C96.0947 23.7313 96.6571 23.8855 97.2921 23.8855ZM121.313 27.5321C120.207 27.5321 119.191 27.2872 118.265 26.7974C117.358 26.3075 116.633 25.6272 116.088 24.7563C115.562 23.8855 115.299 22.8514 115.299 21.654V13.3538C115.299 13.0635 115.227 12.8005 115.081 12.5646C114.936 12.3288 114.746 12.1383 114.51 11.9931C114.274 11.848 114.011 11.7754 113.721 11.7754C113.431 11.7754 113.167 11.848 112.932 11.9931C112.696 12.1383 112.505 12.3288 112.36 12.5646C112.233 12.8005 112.17 13.0635 112.17 13.3538V27.2056H107.707V13.6804C107.707 12.5374 107.961 11.5305 108.469 10.6597C108.995 9.78884 109.711 9.09943 110.618 8.59144C111.544 8.08345 112.578 7.82946 113.721 7.82946C114.882 7.82946 115.916 8.08345 116.823 8.59144C117.73 9.09943 118.447 9.78884 118.973 10.6597C119.499 11.5305 119.762 12.5374 119.762 13.6804V21.9805C119.762 22.289 119.835 22.5611 119.98 22.797C120.125 23.0328 120.307 23.2233 120.524 23.3684C120.76 23.4954 121.014 23.5589 121.286 23.5589C121.576 23.5589 121.84 23.4954 122.075 23.3684C122.329 23.2233 122.529 23.0328 122.674 22.797C122.819 22.5611 122.892 22.289 122.892 21.9805V13.6804C122.892 12.5374 123.155 11.5305 123.681 10.6597C124.207 9.78884 124.924 9.09943 125.831 8.59144C126.756 8.08345 127.781 7.82946 128.906 7.82946C130.067 7.82946 131.092 8.08345 131.981 8.59144C132.888 9.09943 133.605 9.78884 134.131 10.6597C134.657 11.5305 134.92 12.5374 134.92 13.6804V27.2056H130.457V13.3266C130.457 13.0363 130.385 12.7823 130.239 12.5646C130.112 12.3288 129.931 12.1383 129.695 11.9931C129.459 11.848 129.196 11.7754 128.906 11.7754C128.634 11.7754 128.371 11.848 128.117 11.9931C127.881 12.1383 127.69 12.3288 127.545 12.5646C127.4 12.7823 127.328 13.0363 127.328 13.3266V21.654C127.328 22.8514 127.055 23.8855 126.511 24.7563C125.967 25.6272 125.241 26.3075 124.334 26.7974C123.427 27.2872 122.42 27.5321 121.313 27.5321ZM143.585 27.5321C142.351 27.5321 141.263 27.2146 140.319 26.5797C139.376 25.9447 138.641 25.092 138.115 24.0216C137.589 22.933 137.326 21.7084 137.326 20.3477C137.326 18.9326 137.634 17.6717 138.251 16.565C138.868 15.4402 139.739 14.5512 140.864 13.8981C142.007 13.245 143.349 12.9184 144.891 12.9184C146.452 12.9184 147.776 13.245 148.864 13.8981C149.971 14.5331 150.815 15.413 151.395 16.5378C151.994 17.6445 152.293 18.8873 152.293 20.2661V27.2056H148.157V24.974H148.048C147.794 25.4639 147.467 25.9084 147.068 26.3075C146.669 26.6885 146.179 26.9879 145.599 27.2056C145.036 27.4233 144.365 27.5321 143.585 27.5321ZM144.837 23.8855C145.472 23.8855 146.025 23.7313 146.497 23.4229C146.987 23.0963 147.359 22.6518 147.613 22.0894C147.867 21.527 147.994 20.9011 147.994 20.2117C147.994 19.5404 147.867 18.9326 147.613 18.3883C147.359 17.8441 146.987 17.4177 146.497 17.1093C146.025 16.7827 145.472 16.6195 144.837 16.6195C144.184 16.6195 143.612 16.7827 143.122 17.1093C142.633 17.4177 142.261 17.8441 142.007 18.3883C141.753 18.9326 141.626 19.5404 141.626 20.2117C141.626 20.9011 141.753 21.527 142.007 22.0894C142.261 22.6518 142.633 23.0963 143.122 23.4229C143.612 23.7313 144.184 23.8855 144.837 23.8855ZM160.529 27.2056C159.241 27.2056 158.234 26.8427 157.508 26.117C156.782 25.3732 156.42 24.3753 156.42 23.1235V9.84326H160.665V22.8786C160.665 23.0963 160.738 23.2868 160.883 23.4501C161.046 23.5952 161.236 23.6678 161.454 23.6678H164.502V27.2056H160.529ZM154.134 16.7011V13.245H164.502V16.7011H154.134ZM173.894 27.2056C172.316 27.2056 170.928 26.9153 169.731 26.3347C168.533 25.736 167.599 24.9196 166.928 23.8855C166.275 22.8332 165.948 21.6177 165.948 20.2389C165.948 18.7149 166.266 17.4087 166.901 16.3201C167.535 15.2316 168.379 14.397 169.431 13.8165C170.502 13.2178 171.681 12.9184 172.969 12.9184C174.439 12.9184 175.663 13.2268 176.643 13.8437C177.641 14.4605 178.394 15.3041 178.902 16.3745C179.41 17.4268 179.664 18.6333 179.664 19.994C179.664 20.2298 179.646 20.511 179.609 20.8376C179.591 21.146 179.564 21.3909 179.528 21.5723H170.384C170.493 22.044 170.701 22.4432 171.01 22.7697C171.318 23.0963 171.708 23.3412 172.18 23.5045C172.652 23.6497 173.178 23.7222 173.758 23.7222H178.031V27.2056H173.894ZM170.275 18.9326H175.582C175.545 18.6423 175.491 18.3611 175.418 18.089C175.346 17.8169 175.228 17.581 175.065 17.3814C174.919 17.1637 174.747 16.9823 174.548 16.8372C174.348 16.6739 174.112 16.5469 173.84 16.4562C173.586 16.3655 173.296 16.3201 172.969 16.3201C172.552 16.3201 172.18 16.3927 171.853 16.5378C171.527 16.683 171.255 16.8825 171.037 17.1365C170.819 17.3724 170.647 17.6536 170.52 17.9801C170.411 18.2886 170.329 18.6061 170.275 18.9326Z" fill="#0A69BB"/>
<circle cx="17.0085" cy="17.0085" r="17.0085" fill="#0A69BB"/>
<path d="M14.2024 10.3186C14.2024 8.75315 16.5822 7.48389 19.5176 7.48389C22.453 7.48389 24.8327 8.75315 24.8327 10.3186C24.8327 11.8841 22.453 13.1534 19.5176 13.1534C16.5822 13.1534 14.2024 11.8841 14.2024 10.3186ZM19.5176 15.9881C22.453 15.9881 24.8327 14.7189 24.8327 13.1534V11.736C24.8327 13.3015 22.453 14.5708 19.5176 14.5708C16.5822 14.5708 14.2024 13.3015 14.2024 11.736V13.1534C14.2024 14.7189 16.5822 15.9881 19.5176 15.9881ZM12.0763 15.9881C9.72776 15.9881 7.82422 17.8917 7.82422 20.2403C7.82422 22.5889 9.72776 24.4924 12.0763 24.4924C14.4249 24.4924 16.3285 22.5889 16.3285 20.2403C16.3285 17.8917 14.4249 15.9881 12.0763 15.9881ZM12.785 20.2403V22.3663H11.3677V20.2403H9.62854L11.5328 18.336C11.8283 18.0405 12.3074 18.0405 12.6029 18.336L14.5079 20.2403H12.785ZM19.5176 23.1112C18.6657 23.1112 17.8607 23.0042 17.147 22.8142C16.9358 23.2345 16.675 23.6257 16.3703 23.9786C17.2512 24.3245 18.3397 24.5293 19.5176 24.5293C22.453 24.5293 24.8327 23.26 24.8327 21.6945V20.2771C24.8327 21.8426 22.453 23.1112 19.5176 23.1112ZM19.5176 17.4417C18.4886 17.4417 17.5283 17.2858 16.7147 17.0157C17.062 17.5083 17.332 18.0582 17.5084 18.6493C18.1285 18.7846 18.8068 18.859 19.5176 18.859C22.453 18.859 24.8327 17.5898 24.8327 16.0243V14.6069C24.8327 16.1724 22.453 17.4417 19.5176 17.4417ZM19.5176 20.2764C18.8954 20.2764 18.2986 20.219 17.7437 20.1141C17.7451 20.168 17.7459 20.2219 17.7459 20.2764C17.7459 20.6988 17.6991 21.1098 17.6119 21.506C18.2037 21.6272 18.8457 21.6938 19.5176 21.6938C22.453 21.6938 24.8327 20.4245 24.8327 18.859V17.4417C24.8327 19.0072 22.453 20.2764 19.5176 20.2764Z" fill="white"/>
</svg>
